<?xml version="1.0" encoding="UTF-8" standalone="no"?>
<!-- Created with Inkscape (http://www.inkscape.org/) -->

<svg
   width="600"
   height="600"
   viewBox="0 0 158.75 158.75"
   version="1.1"
   id="svg5"
   inkscape:version="1.2.2 (732a01da63, 2022-12-09)"
   sodipodi:docname="pro.svg"
   xml:space="preserve"
   xmlns:inkscape="http://www.inkscape.org/namespaces/inkscape"
   xmlns:sodipodi="http://sodipodi.sourceforge.net/DTD/sodipodi-0.dtd"
   xmlns:xlink="http://www.w3.org/1999/xlink"
   xmlns="http://www.w3.org/2000/svg"
   xmlns:svg="http://www.w3.org/2000/svg"><sodipodi:namedview
     id="namedview7"
     pagecolor="#ffffff"
     bordercolor="#666666"
     borderopacity="1.0"
     inkscape:showpageshadow="2"
     inkscape:pageopacity="0.0"
     inkscape:pagecheckerboard="0"
     inkscape:deskcolor="#d1d1d1"
     inkscape:document-units="mm"
     showgrid="false"
     inkscape:zoom="0.72776573"
     inkscape:cx="257.63785"
     inkscape:cy="333.21162"
     inkscape:window-width="1260"
     inkscape:window-height="778"
     inkscape:window-x="-6"
     inkscape:window-y="-6"
     inkscape:window-maximized="1"
     inkscape:current-layer="layer1" /><defs
     id="defs2"><linearGradient
       inkscape:collect="always"
       id="linearGradient20121"><stop
         style="stop-color:#ffffff;stop-opacity:0;"
         offset="0"
         id="stop20117" /><stop
         style="stop-color:#ffffff;stop-opacity:0.50663716;"
         offset="0.68880451"
         id="stop20127" /><stop
         style="stop-color:#ffffff;stop-opacity:0.99999994;"
         offset="1"
         id="stop20119" /></linearGradient><radialGradient
       inkscape:collect="always"
       xlink:href="#linearGradient20121"
       id="radialGradient20125"
       cx="79.852997"
       cy="79.852997"
       fx="79.852997"
       fy="79.852997"
       r="79.852997"
       gradientUnits="userSpaceOnUse"
       gradientTransform="matrix(0.91118898,-0.8620599,0.85349319,0.90213408,-61.414167,76.300956)" /></defs><g
     inkscape:label="Capa 1"
     inkscape:groupmode="layer"
     id="layer1"><circle
       style="fill:#ffffff;fill-rule:evenodd;stroke-width:0.456479;stroke-linecap:round;stroke-linejoin:round;paint-order:stroke fill markers"
       id="path234"
       cx="79.375"
       cy="79.375"
       r="79.375" /><g
       id="g18613"
       transform="matrix(-0.40086501,-1.3045419,1.3045419,-0.40086501,-363.08531,86.862715)"><path
         id="path470-5-4"
         style="fill:#f2151c;fill-opacity:1;fill-rule:evenodd;stroke-width:0.583287;stroke-linecap:round;stroke-linejoin:round;paint-order:stroke fill markers"
         d="m -103.71583,306.96503 a 2.45,2.45 0 0 0 -1.65492,-3.04402 2.45,2.45 0 0 0 -3.04402,1.65492 2.45,2.45 0 0 0 1.6549,3.04403 2.45,2.45 0 0 0 3.04404,-1.65493 z m -12.18667,32.87522 a 1.45,1.45 0 0 0 -0.97948,-1.80163 1.45,1.45 0 0 0 -1.80163,0.97947 1.45,1.45 0 0 0 0.97951,1.80164 1.45,1.45 0 0 0 1.8016,-0.97948 z m 8.27706,-29.82347 a 2.45,2.45 0 0 0 -1.65492,-3.04402 2.45,2.45 0 0 0 -3.04453,1.65476 2.45,2.45 0 0 0 1.65542,3.04418 2.45,2.45 0 0 0 3.04403,-1.65492 z m -12.5183,41.08981 a 1.6,1.6 45 0 0 -1.08074,-1.98782 1.6,1.6 45 0 0 -1.98783,1.08069 1.6,1.6 45 0 0 1.08071,1.98783 1.6,1.6 45 0 0 1.98786,-1.0807 z m 3.33297,-15.52358 a 1.8,1.8 0 0 0 -1.2158,-2.2363 1.8,1.8 0 0 0 -2.23681,1.21563 1.8,1.8 0 0 0 1.21616,2.23697 1.8,1.8 0 0 0 2.23645,-1.2163 z m 5.96359,-21.77711 a 2.3,2.3 0 0 0 -1.55322,-2.85769 2.3,2.3 0 0 0 -2.8578,1.5537 2.3,2.3 0 0 0 1.55368,2.85782 2.3,2.3 0 0 0 2.85734,-1.55383 z m -8.7764,29.07178 a 1.45,1.45 0 0 0 -0.97963,-1.80113 1.45,1.45 0 0 0 -1.80147,0.97899 1.45,1.45 0 0 0 0.97946,1.8016 1.45,1.45 0 0 0 1.80164,-0.97946 z m 2.47204,-12.00599 a 1.95,1.95 0 0 0 -1.31739,-2.42315 1.95,1.95 0 0 0 -2.42266,1.31754 1.95,1.95 0 0 0 1.31704,2.42248 1.95,1.95 0 0 0 2.42301,-1.31687 z m 3.45394,-13.28598 a 2.1500001,2.1500001 0 0 0 -1.45209,-2.671 2.1500001,2.1500001 0 0 0 -2.6715,1.45197 2.1500001,2.1500001 0 0 0 1.45246,2.67162 2.1500001,2.1500001 0 0 0 2.67113,-1.45259 z m 3.26964,-12.07737 a 2.45,2.45 0 0 0 -1.65491,-3.04401 2.45,2.45 0 0 0 -3.044,1.6549 2.45,2.45 0 0 0 1.6549,3.04402 2.45,2.45 0 0 0 3.04401,-1.65491 z m -6.18408,20.68753 a 2,2 0 0 0 -1.35075,-2.48527 2,2 0 0 0 -2.48491,1.35138 2,2 0 0 0 1.35086,2.48479 2,2 0 0 0 2.4848,-1.3509 z m 1.0083,-4.46986 a 2.1500001,2.1500001 0 0 0 -1.45246,-2.67163 2.1500001,2.1500001 0 0 0 -2.67112,1.4526 2.1500001,2.1500001 0 0 0 1.45209,2.67101 2.1500001,2.1500001 0 0 0 2.67149,-1.45198 z m -7.62399,24.12721 a 1.85,1.85 0 0 0 -1.24965,-2.2986 1.85,1.85 0 0 0 -2.29858,1.24967 1.85,1.85 0 0 0 1.24965,2.29856 1.85,1.85 0 0 0 2.29858,-1.24963 z m 2.03627,-7.83785 a 1.45,1.45 0 0 0 -0.97946,-1.80162 1.45,1.45 0 0 0 -1.80162,0.97946 1.45,1.45 0 0 0 0.97948,1.80165 1.45,1.45 0 0 0 1.8016,-0.97949 z m 7.14994,-28.85799 a 2.3,2.3 0 0 0 -1.55367,-2.85782 2.3,2.3 0 0 0 -2.85734,1.55382 2.3,2.3 0 0 0 1.55334,2.85719 2.3,2.3 0 0 0 2.85767,-1.55319 z m -7.85133,24.2529 a 1.8,1.8 0 0 0 -1.21579,-2.23631 1.8,1.8 0 0 0 -2.23633,1.21577 1.8,1.8 0 0 0 1.21579,2.23632 1.8,1.8 0 0 0 2.23633,-1.21578 z m -3.6152,6.96101 a 2.25,2.25 0 0 0 -1.52032,-2.7957 2.25,2.25 0 0 0 -2.79553,1.51982 2.25,2.25 0 0 0 1.51982,2.79554 2.25,2.25 0 0 0 2.79603,-1.51966 z m 7.93153,-26.93758 a 2.25,2.25 0 0 0 -1.51981,-2.79554 2.25,2.25 0 0 0 -2.79555,1.51983 2.25,2.25 0 0 0 1.51983,2.79555 2.25,2.25 0 0 0 2.79553,-1.51984 z m -4.62877,14.81559 a 1.95,1.95 0 0 0 -1.31751,-2.42266 1.95,1.95 0 0 0 -2.42249,1.31702 1.95,1.95 0 0 0 1.31687,2.423 1.95,1.95 0 0 0 2.42313,-1.31736 z m 0.76441,-5.083 a 2.0999999,2.0999999 0 0 0 -1.41874,-2.60885 2.0999999,2.0999999 0 0 0 -2.60871,1.41825 2.0999999,2.0999999 0 0 0 1.4181,2.6092 2.0999999,2.0999999 0 0 0 2.60935,-1.4186 z m 1.4921,-5.12923 a 2.1500001,2.1500001 0 0 0 -1.45211,-2.67098 2.1500001,2.1500001 0 0 0 -2.67147,1.45196 2.1500001,2.1500001 0 0 0 1.45246,2.67162 2.1500001,2.1500001 0 0 0 2.67112,-1.4526 z m -6.89815,16.19618 a 2.4000001,2.4000001 0 0 0 -1.62142,-2.98236 2.4000001,2.4000001 0 0 0 -2.9819,1.62153 2.4000001,2.4000001 0 0 0 1.62107,2.98175 2.4000001,2.4000001 0 0 0 2.98225,-1.62092 z m 8.67171,-29.7294 a 2.8,2.8 0 0 0 -1.89107,-3.4792 2.8,2.8 0 0 0 -3.47933,1.89158 2.8,2.8 0 0 0 1.89171,3.47884 2.8,2.8 0 0 0 3.47869,-1.89122 z m -3.64189,5.07725 a 2.75,2.75 0 0 0 -1.85725,-3.41689 2.75,2.75 0 0 0 -3.41703,1.85772 2.75,2.75 0 0 0 1.85786,3.41657 2.75,2.75 0 0 0 3.41642,-1.8574 z m -5.54889,18.23434 a 2.4000001,2.4000001 0 0 0 -1.62106,-2.98176 2.4000001,2.4000001 0 0 0 -2.98223,1.62091 2.4000001,2.4000001 0 0 0 1.6214,2.9824 2.4000001,2.4000001 0 0 0 2.98189,-1.62155 z m 0.90232,-6.37164 a 2.7,2.7 0 0 0 -1.82388,-3.35478 2.7,2.7 0 0 0 -3.35476,1.82387 2.7,2.7 0 0 0 1.82384,3.35476 2.7,2.7 0 0 0 3.3548,-1.82385 z m 1.6444,-5.88173 a 2.7,2.7 0 0 0 -1.82384,-3.35478 2.7,2.7 0 0 0 -3.35481,1.82387 2.7,2.7 0 0 0 1.82402,3.35428 2.7,2.7 0 0 0 3.35463,-1.82337 z"
         inkscape:transform-center-x="11.93191"
         inkscape:transform-center-y="20.469408" /><path
         id="path470-5-4-6"
         style="fill:#fa7e19;fill-opacity:1;fill-rule:evenodd;stroke-width:0.583287;stroke-linecap:round;stroke-linejoin:round;paint-order:stroke fill markers"
         d="m -88.572871,297.62397 a 2.45,2.45 0 0 0 2.35379,-2.54256 2.45,2.45 0 0 0 -2.542541,-2.35377 2.45,2.45 0 0 0 -2.353771,2.54254 2.45,2.45 0 0 0 2.542567,2.35378 z m -35.046549,-1.01689 a 1.45,1.45 0 0 0 1.3931,-1.50486 1.45,1.45 0 0 0 -1.50486,-1.39308 1.45,1.45 0 0 0 -1.39306,1.50485 1.45,1.45 0 0 0 1.50482,1.39309 z m 30.903509,-1.70953 a 2.45,2.45 0 0 0 2.353787,-2.54255 2.45,2.45 0 0 0 -2.542594,-2.35427 2.45,2.45 0 0 0 -2.35374,2.54307 2.45,2.45 0 0 0 2.542537,2.35378 z m -42.934739,1.29957 a 1.6,1.6 45 0 0 1.53705,-1.66039 1.6,1.6 45 0 0 -1.66035,-1.53706 1.6,1.6 45 0 0 -1.53707,1.66036 1.6,1.6 45 0 0 1.66037,1.53709 z m 15.77341,-1.81382 a 1.8,1.8 0 0 0 1.72919,-1.86793 1.8,1.8 0 0 0 -1.86797,-1.72971 1.8,1.8 0 0 0 -1.72967,1.86846 1.8,1.8 0 0 0 1.86837,1.72926 z m 22.540028,-1.32439 a 2.3,2.3 0 0 0 2.209782,-2.38655 2.3,2.3 0 0 0 -2.387049,-2.20977 2.3,2.3 0 0 0 -2.209751,2.38706 2.3,2.3 0 0 0 2.386798,2.2095 z m -30.351308,0.99574 a 1.45,1.45 0 0 0 1.39255,-1.50481 1.45,1.45 0 0 0 -1.50432,-1.3931 1.45,1.45 0 0 0 -1.39307,1.50485 1.45,1.45 0 0 0 1.50484,1.39306 z m 12.16536,-1.50295 a 1.95,1.95 0 0 0 1.87366,-2.02397 1.95,1.95 0 0 0 -2.02383,-1.87331 1.95,1.95 0 0 0 -1.87316,2.02346 1.95,1.95 0 0 0 2.02346,1.87369 z m 13.6924,-0.98266 a 2.1500001,2.1500001 0 0 0 2.06528,-2.23099 2.1500001,2.1500001 0 0 0 -2.23099,-2.0658 2.1500001,2.1500001 0 0 0 -2.06581,2.2315 2.1500001,2.1500001 0 0 0 2.23132,2.0655 z m 12.488397,-0.77019 a 2.45,2.45 0 0 0 2.353708,-2.54263 2.45,2.45 0 0 0 -2.542553,-2.35377 2.45,2.45 0 0 0 -2.353775,2.54255 2.45,2.45 0 0 0 2.542555,2.35379 z m -21.578457,0.76657 a 2,2 0 0 0 1.92184,-2.0755 2,2 0 0 0 -2.07584,-1.92147 2,2 0 0 0 -1.92134,2.07548 2,2 0 0 0 2.07549,1.92132 z m 4.55737,-0.47624 a 2.1500001,2.1500001 0 0 0 2.06578,-2.23153 2.1500001,2.1500001 0 0 0 -2.23131,-2.06548 2.1500001,2.1500001 0 0 0 -2.0653,2.23099 2.1500001,2.1500001 0 0 0 2.23103,2.06581 z m -25.2981,0.50404 a 1.85,1.85 0 0 0 1.77735,-1.91995 1.85,1.85 0 0 0 -1.91994,-1.77733 1.85,1.85 0 0 0 -1.77733,1.91994 1.85,1.85 0 0 0 1.91992,1.77734 z m 8.07718,-0.58097 a 1.45,1.45 0 0 0 1.39307,-1.50482 1.45,1.45 0 0 0 -1.50483,-1.3931 1.45,1.45 0 0 0 -1.39308,1.50485 1.45,1.45 0 0 0 1.50484,1.39307 z m 29.627912,-2.46809 a 2.3,2.3 0 0 0 2.209764,-2.38706 2.3,2.3 0 0 0 -2.386801,-2.2095 2.3,2.3 0 0 0 -2.209264,2.3865 2.3,2.3 0 0 0 2.386532,2.20981 z m -25.489992,0.32888 a 1.8,1.8 0 0 0 1.72922,-1.8679 1.8,1.8 0 0 0 -1.86793,-1.72923 1.8,1.8 0 0 0 -1.72919,1.86793 1.8,1.8 0 0 0 1.8679,1.7292 z m -7.75212,-1.19558 a 2.25,2.25 0 0 0 2.16162,-2.33552 2.25,2.25 0 0 0 -2.33501,-2.16161 2.25,2.25 0 0 0 -2.16164,2.33502 2.25,2.25 0 0 0 2.33507,2.16215 z m 28.058941,-1.11268 a 2.25,2.25 0 0 0 2.161623,-2.33503 2.25,2.25 0 0 0 -2.335049,-2.16161 2.25,2.25 0 0 0 -2.161615,2.33503 2.25,2.25 0 0 0 2.335041,2.16161 z m -15.517661,0.35955 a 1.95,1.95 0 0 0 1.87315,-2.02396 1.95,1.95 0 0 0 -2.02344,-1.87315 1.95,1.95 0 0 0 -1.87367,2.02345 1.95,1.95 0 0 0 2.02396,1.87366 z m 5.06011,-0.90367 a 2.0999999,2.0999999 0 0 0 2.01709,-2.1795 2.0999999,2.0999999 0 0 0 -2.17898,-2.01714 2.0999999,2.0999999 0 0 0 -2.01767,2.179 2.0999999,2.0999999 0 0 0 2.17952,2.01762 z m 5.33693,-0.22903 a 2.1500001,2.1500001 0 0 0 2.06528,-2.23098 2.1500001,2.1500001 0 0 0 -2.23102,-2.06584 2.1500001,2.1500001 0 0 0 -2.06577,2.23154 2.1500001,2.1500001 0 0 0 2.23133,2.06549 z m -17.5523,-1.34822 a 2.4000001,2.4000001 0 0 0 2.30609,-2.49106 2.4000001,2.4000001 0 0 0 -2.49083,-2.30587 2.4000001,2.4000001 0 0 0 -2.3056,2.49054 2.4000001,2.4000001 0 0 0 2.49057,2.3061 z m 30.940796,-1.3055 a 2.8,2.8 0 0 0 2.690374,-2.90569 2.8,2.8 0 0 0 -2.906057,-2.69049 2.8,2.8 0 0 0 -2.689796,2.9062 2.8,2.8 0 0 0 2.905513,2.69 z m -5.976176,-1.82415 a 2.75,2.75 0 0 0 2.642202,-2.85366 2.75,2.75 0 0 0 -2.854046,-2.64232 2.75,2.75 0 0 0 -2.641694,2.85413 2.75,2.75 0 0 0 2.853495,2.64182 z m -19.05101,0.58271 a 2.4000001,2.4000001 0 0 0 2.30561,-2.49055 2.4000001,2.4000001 0 0 0 -2.49057,-2.3061 2.4000001,2.4000001 0 0 0 -2.30611,2.49106 2.4000001,2.4000001 0 0 0 2.49081,2.30586 z m 6.32502,-1.18569 a 2.7,2.7 0 0 0 2.594,-2.80217 2.7,2.7 0 0 0 -2.80205,-2.59414 2.7,2.7 0 0 0 -2.59397,2.80217 2.7,2.7 0 0 0 2.80202,2.59414 z m 6.0986,-0.32575 a 2.7,2.7 0 0 0 2.59399,-2.80218 2.7,2.7 0 0 0 -2.80204,-2.59413 2.7,2.7 0 0 0 -2.59354,2.80211 2.7,2.7 0 0 0 2.80164,2.59405 z"
         inkscape:transform-center-x="23.092149"
         inkscape:transform-center-y="-8.8940541" /><path
         id="path470-5-4-69"
         style="fill:#ead211;fill-opacity:1;fill-rule:evenodd;stroke-width:0.583287;stroke-linecap:round;stroke-linejoin:round;paint-order:stroke fill markers"
         d="m -74.734533,309.1347 a 2.45,2.45 0 0 0 3.165875,1.40788 2.45,2.45 0 0 0 1.407896,-3.16587 2.45,2.45 0 0 0 -3.165875,-1.40785 2.45,2.45 0 0 0 -1.407896,3.16584 z m -10.3413,-33.50153 a 1.45,1.45 0 0 0 1.873756,0.83325 1.45,1.45 0 0 0 0.833219,-1.87376 1.45,1.45 0 0 0 -1.87376,-0.83324 1.45,1.45 0 0 0 -0.833215,1.87375 z m 11.585714,28.70053 a 2.45,2.45 0 0 0 3.165892,1.40786 2.45,2.45 0 0 0 1.408315,-3.16605 2.45,2.45 0 0 0 -3.166322,-1.40768 2.45,2.45 0 0 0 -1.40791,3.16585 z m -15.078198,-40.22099 a 1.6,1.6 0 0 0 2.067401,0.91935 1.6,1.6 0 0 0 0.919372,-2.06739 1.6,1.6 0 0 0 -2.067407,-0.91938 1.6,1.6 0 0 0 -0.919372,2.06743 z m 6.804409,14.34539 a 1.8,1.8 0 0 0 2.325808,1.03431 1.8,1.8 0 0 0 1.034744,-2.32604 1.8,1.8 0 0 0 -2.32649,-1.03459 1.8,1.8 0 0 0 -1.034093,2.32629 z m 8.523611,20.90824 a 2.3,2.3 0 0 0 2.971751,1.32194 2.3,2.3 0 0 0 1.321766,-2.97221 2.3,2.3 0 0 0 -2.972194,-1.32173 2.3,2.3 0 0 0 -1.321334,2.97201 z m -10.731984,-28.40805 a 1.45,1.45 0 0 0 1.873537,0.83282 1.45,1.45 0 0 0 0.833446,-1.87328 1.45,1.45 0 0 0 -1.873758,-0.83325 1.45,1.45 0 0 0 -0.83321,1.87377 z m 5.346419,11.03044 a 1.95,1.95 0 0 0 2.520134,1.12071 1.95,1.95 0 0 0 1.120241,-2.51995 1.95,1.95 0 0 0 -2.519459,-1.12042 1.95,1.95 0 0 0 -1.12089,2.51968 z m 5.346476,12.64368 a 2.1500001,2.1500001 0 0 0 2.777881,1.23535 2.1500001,2.1500001 0 0 0 1.235846,-2.77808 2.1500001,2.1500001 0 0 0 -2.778543,-1.23564 2.1500001,2.1500001 0 0 0 -1.235205,2.77837 z m 4.757004,11.57253 a 2.45,2.45 0 0 0 3.16588,1.40787 2.45,2.45 0 0 0 1.407903,-3.16587 2.45,2.45 0 0 0 -3.165863,-1.40785 2.45,2.45 0 0 0 -1.407907,3.16585 z m -7.685471,-20.17797 a 2,2 0 0 0 2.584428,1.14971 2,2 0 0 0 1.149065,-2.58471 2,2 0 0 0 -2.584245,-1.14922 2,2 0 0 0 -1.149257,2.58422 z m 1.920719,4.1602 a 2.1500001,2.1500001 0 0 0 2.778554,1.23564 2.1500001,2.1500001 0 0 0 1.235203,-2.77837 2.1500001,2.1500001 0 0 0 -2.777913,-1.23531 2.1500001,2.1500001 0 0 0 -1.23584,2.77806 z m -8.636721,-23.78348 a 1.85,1.85 0 0 0 2.390606,1.0631 1.85,1.85 0 0 0 1.063124,-2.39057 1.85,1.85 0 0 0 -2.390604,-1.06311 1.85,1.85 0 0 0 -1.063126,2.39058 z m 3.155116,7.45812 a 1.45,1.45 0 0 0 1.873749,0.83324 1.45,1.45 0 0 0 0.833218,-1.87375 1.45,1.45 0 0 0 -1.873747,-0.83326 1.45,1.45 0 0 0 -0.833207,1.87377 z m 11.892354,27.24842 a 2.3,2.3 0 0 0 2.972213,1.32177 2.3,2.3 0 0 0 1.321243,-2.97204 2.3,2.3 0 0 0 -2.971528,-1.32144 2.3,2.3 0 0 0 -1.321974,2.97169 z m -8.53282,-24.02161 a 1.8,1.8 0 0 0 2.325849,1.03431 1.8,1.8 0 0 0 1.034313,-2.32583 1.8,1.8 0 0 0 -2.325819,-1.0343 1.8,1.8 0 0 0 -1.034314,2.32583 z m -1.36867,-7.72345 a 2.25,2.25 0 0 0 2.907926,1.29274 2.25,2.25 0 0 0 1.29295,-2.90744 2.25,2.25 0 0 0 -2.907447,-1.29293 2.25,2.25 0 0 0 -1.293472,2.90761 z m 10.103297,26.20048 a 2.25,2.25 0 0 0 2.907431,1.29294 2.25,2.25 0 0 0 1.292953,-2.90745 2.25,2.25 0 0 0 -2.907433,-1.29294 2.25,2.25 0 0 0 -1.292948,2.90744 z m -5.345373,-14.57235 a 1.95,1.95 0 0 0 2.519957,1.12023 1.95,1.95 0 0 0 1.120459,-2.51947 1.95,1.95 0 0 0 -2.51966,-1.12088 1.95,1.95 0 0 0 -1.120756,2.52012 z m 2.487008,4.49842 a 2.0999999,2.0999999 0 0 0 2.713582,1.20636 2.0999999,2.0999999 0 0 0 1.20649,-2.71314 2.0999999,2.0999999 0 0 0 -2.713306,-1.20701 2.0999999,2.0999999 0 0 0 -1.206792,2.71377 z m 1.938158,4.97783 a 2.1500001,2.1500001 0 0 0 2.777892,1.23535 2.1500001,2.1500001 0 0 0 1.235828,-2.77808 2.1500001,2.1500001 0 0 0 -2.778558,-1.23564 2.1500001,2.1500001 0 0 0 -1.235186,2.77835 z m -4.385139,-17.04907 a 2.4000001,2.4000001 0 0 0 3.101781,1.37935 2.4000001,2.4000001 0 0 0 1.378881,-3.10158 2.4000001,2.4000001 0 0 0 -3.101108,-1.37905 2.4000001,2.4000001 0 0 0 -1.379507,3.1013 z m 11.215343,28.86613 a 2.8,2.8 0 0 0 3.618138,1.60939 2.8,2.8 0 0 0 1.609216,-3.61862 2.8,2.8 0 0 0 -3.61843,-1.60872 2.8,2.8 0 0 0 -1.608924,3.61795 z m -0.200893,-6.24515 a 2.75,2.75 0 0 0 3.553366,1.58058 2.75,2.75 0 0 0 1.580414,-3.55383 2.75,2.75 0 0 0 -3.553676,-1.57995 2.75,2.75 0 0 0 -1.580093,3.5532 z m -6.69623,-17.84492 a 2.4000001,2.4000001 0 0 0 3.101098,1.37908 2.4000001,2.4000001 0 0 0 1.379509,-3.1013 2.4000001,2.4000001 0 0 0 -3.101746,-1.37936 2.4000001,2.4000001 0 0 0 -1.378873,3.10158 z m 3.16234,5.60457 a 2.7,2.7 0 0 0 3.48907,1.55162 2.7,2.7 0 0 0 1.551586,-3.48909 2.7,2.7 0 0 0 -3.489057,-1.55159 2.7,2.7 0 0 0 -1.551564,3.48909 z m 2.275403,5.66758 a 2.7,2.7 0 0 0 3.489041,1.55162 2.7,2.7 0 0 0 1.551589,-3.48906 2.7,2.7 0 0 0 -3.488874,-1.55114 2.7,2.7 0 0 0 -1.551785,3.48859 z"
         inkscape:transform-center-x="0.027166919"
         inkscape:transform-center-y="-22.020526" /><path
         id="path470-5-4-65"
         style="fill:#6e69b4;fill-opacity:1;fill-rule:evenodd;stroke-width:0.583287;stroke-linecap:round;stroke-linejoin:round;paint-order:stroke fill markers"
         d="m -81.829536,325.92523 a 2.45,2.45 0 0 0 -0.394744,3.44224 2.45,2.45 0 0 0 3.442251,0.39478 2.45,2.45 0 0 0 0.394731,-3.44223 2.45,2.45 0 0 0 -3.442238,-0.39479 z m 28.864676,-19.9029 a 1.45,1.45 0 0 0 -0.233625,2.0373 1.45,1.45 0 0 0 2.037298,0.23364 1.45,1.45 0 0 0 0.233636,-2.03729 1.45,1.45 0 0 0 -2.037309,-0.23365 z m -23.911365,19.65187 a 2.45,2.45 0 0 0 -0.394756,3.44224 2.45,2.45 0 0 0 3.442555,0.39516 2.45,2.45 0 0 0 0.394436,-3.44264 2.45,2.45 0 0 0 -3.442235,-0.39476 z m 33.856411,-26.43531 a 1.6,1.6 45 0 0 -0.257796,2.24788 1.6,1.6 45 0 0 2.247871,0.25778 1.6,1.6 45 0 0 0.25778,-2.24787 1.6,1.6 45 0 0 -2.247855,-0.25779 z m -11.648001,10.78956 a 1.8,1.8 0 0 0 -0.290014,2.52885 1.8,1.8 0 0 0 2.529169,0.29042 1.8,1.8 0 0 0 0.29007,-2.52958 1.8,1.8 0 0 0 -2.529225,-0.28969 z m -17.394349,14.39595 a 2.3,2.3 0 0 0 -0.370919,3.23129 2.3,2.3 0 0 0 3.23166,0.3706 2.3,2.3 0 0 0 0.370631,-3.23169 2.3,2.3 0 0 0 -3.231372,-0.3702 z m 23.888067,-18.74974 a 1.45,1.45 0 0 0 -0.233233,2.037 1.45,1.45 0 0 0 2.036922,0.23395 1.45,1.45 0 0 0 0.23364,-2.0373 1.45,1.45 0 0 0 -2.037329,-0.23365 z m -8.922075,8.40543 a 1.95,1.95 0 0 0 -0.314251,2.74014 1.95,1.95 0 0 0 2.739846,0.31384 1.95,1.95 0 0 0 0.314144,-2.73941 1.95,1.95 0 0 0 -2.739739,-0.31457 z m -10.461225,8.88879 a 2.1500001,2.1500001 0 0 0 -0.346357,3.02038 2.1500001,2.1500001 0 0 0 3.020705,0.34678 2.1500001,2.1500001 0 0 0 0.346489,-3.02112 2.1500001,2.1500001 0 0 0 -3.020837,-0.34604 z m -9.615853,8.00548 a 2.45,2.45 0 0 0 -0.394756,3.44224 2.45,2.45 0 0 0 3.442238,0.39475 2.45,2.45 0 0 0 0.394757,-3.44224 2.45,2.45 0 0 0 -3.442239,-0.39475 z m 16.948717,-13.3775 a 2,2 0 0 0 -0.322634,2.81015 2,2 0 0 0 2.810249,0.32191 2,2 0 0 0 0.322226,-2.80984 2,2 0 0 0 -2.809841,-0.32222 z m -3.393707,3.07881 a 2.1500001,2.1500001 0 0 0 -0.346458,3.02112 2.1500001,2.1500001 0 0 0 3.020798,0.34606 2.1500001,2.1500001 0 0 0 0.346375,-3.0204 2.1500001,2.1500001 0 0 0 -3.020715,-0.34678 z m 20.103674,-15.36523 a 1.85,1.85 0 0 0 -0.2981,2.59929 1.85,1.85 0 0 0 2.599287,0.29809 1.85,1.85 0 0 0 0.298092,-2.59927 1.85,1.85 0 0 0 -2.599279,-0.29811 z m -6.170359,5.24455 a 1.45,1.45 0 0 0 -0.233616,2.0373 1.45,1.45 0 0 0 2.037306,0.23365 1.45,1.45 0 0 0 0.233619,-2.03731 1.45,1.45 0 0 0 -2.037309,-0.23364 z m -22.434102,19.50939 a 2.3,2.3 0 0 0 -0.370622,3.23167 2.3,2.3 0 0 0 3.23135,0.3702 2.3,2.3 0 0 0 0.370553,-3.23095 2.3,2.3 0 0 0 -3.231281,-0.37092 z m 20.361982,-15.33744 a 1.8,1.8 0 0 0 -0.290021,2.52886 1.8,1.8 0 0 0 2.528865,0.29001 1.8,1.8 0 0 0 0.290001,-2.52887 1.8,1.8 0 0 0 -2.528845,-0.29 z m 6.958692,-3.61965 a 2.25,2.25 0 0 0 -0.362226,3.16164 2.25,2.25 0 0 0 3.161252,0.36254 2.25,2.25 0 0 0 0.362529,-3.16125 2.25,2.25 0 0 0 -3.161555,-0.36293 z m -21.970281,17.48855 a 2.25,2.25 0 0 0 -0.362534,3.16124 2.25,2.25 0 0 0 3.161233,0.36253 2.25,2.25 0 0 0 0.362538,-3.16124 2.25,2.25 0 0 0 -3.161237,-0.36253 z m 12.301648,-9.46555 a 1.95,1.95 0 0 0 -0.313862,2.73982 1.95,1.95 0 0 0 2.739442,0.31416 1.95,1.95 0 0 0 0.314552,-2.73974 1.95,1.95 0 0 0 -2.740132,-0.31424 z m -3.546406,3.72079 a 2.0999999,2.0999999 0 0 0 -0.337971,2.95035 2.0999999,2.0999999 0 0 0 2.949962,0.33831 2.0999999,2.0999999 0 0 0 0.338714,-2.95027 2.0999999,2.0999999 0 0 0 -2.950705,-0.33839 z m -4.168536,3.34043 a 2.1500001,2.1500001 0 0 0 -0.346381,3.02039 2.1500001,2.1500001 0 0 0 3.020718,0.34681 2.1500001,2.1500001 0 0 0 0.346452,-3.02114 2.1500001,2.1500001 0 0 0 -3.020789,-0.34606 z m 14.952287,-9.29139 a 2.4000001,2.4000001 0 0 0 -0.386769,3.37253 2.4000001,2.4000001 0 0 0 3.372216,0.38636 2.4000001,2.4000001 0 0 0 0.386678,-3.37181 2.4000001,2.4000001 0 0 0 -3.372125,-0.38708 z m -24.180328,19.3481 a 2.8,2.8 0 0 0 -0.451522,3.93413 2.8,2.8 0 0 0 3.934489,0.45119 2.8,2.8 0 0 0 0.450807,-3.93417 2.8,2.8 0 0 0 -3.933774,-0.45115 z m 5.898128,-2.0626 a 2.75,2.75 0 0 0 -0.443468,3.86364 2.75,2.75 0 0 0 3.864085,0.44316 2.75,2.75 0 0 0 0.442749,-3.86377 2.75,2.75 0 0 0 -3.863366,-0.44303 z m 15.01917,-11.73478 a 2.4000001,2.4000001 0 0 0 -0.386685,3.37183 2.4000001,2.4000001 0 0 0 3.372129,0.38707 2.4000001,2.4000001 0 0 0 0.386771,-3.37254 2.4000001,2.4000001 0 0 0 -3.372215,-0.38636 z m -4.399753,4.69618 a 2.7,2.7 0 0 0 -0.435049,3.79364 2.7,2.7 0 0 0 3.793643,0.43507 2.7,2.7 0 0 0 0.435053,-3.79366 2.7,2.7 0 0 0 -3.793647,-0.43505 z m -4.725578,3.86878 a 2.7,2.7 0 0 0 -0.435083,3.79366 2.7,2.7 0 0 0 3.793649,0.43504 2.7,2.7 0 0 0 0.434634,-3.79331 2.7,2.7 0 0 0 -3.7932,-0.43539 z"
         inkscape:transform-center-x="-18.631206"
         inkscape:transform-center-y="-7.7895143" /><path
         id="path470-5-4-7"
         style="fill:#eb018b;fill-opacity:1;fill-rule:evenodd;stroke-width:0.583287;stroke-linecap:round;stroke-linejoin:round;paint-order:stroke fill markers"
         d="m -99.457274,324.45919 a 2.45,2.45 0 0 0 -3.408986,0.61937 2.45,2.45 0 0 0 0.61937,3.40899 2.45,2.45 0 0 0 3.40899,-0.61937 2.45,2.45 0 0 0 -0.619374,-3.40899 z m 27.411429,21.86112 a 1.45,1.45 0 0 0 -2.017633,0.36659 1.45,1.45 0 0 0 0.366601,2.01763 1.45,1.45 0 0 0 2.017633,-0.36659 1.45,1.45 0 0 0 -0.366601,-2.01763 z m -25.736198,-17.19295 a 2.45,2.45 0 0 0 -3.408977,0.61937 2.45,2.45 0 0 0 0.61908,3.40941 2.45,2.45 0 0 0 3.409275,-0.61981 2.45,2.45 0 0 0 -0.619378,-3.40897 z m 35.109793,24.74641 a 1.6,1.6 45 0 0 -2.226172,0.40447 1.6,1.6 45 0 0 0.404454,2.22615 1.6,1.6 45 0 0 2.226169,-0.40447 1.6,1.6 45 0 0 -0.404451,-2.22615 z m -13.701273,-8.02285 a 1.8,1.8 0 0 0 -2.504399,0.45505 1.8,1.8 0 0 0 0.454657,2.50485 1.8,1.8 0 0 0 2.505157,-0.45518 1.8,1.8 0 0 0 -0.455453,-2.5047 z m -18.817704,-12.478 a 2.3,2.3 0 0 0 -3.200166,0.58105 2.3,2.3 0 0 0 0.581489,3.20047 2.3,2.3 0 0 0 3.200457,-0.58148 2.3,2.3 0 0 0 -0.58178,-3.20004 z m 24.865991,17.43202 a 1.45,1.45 0 0 0 -2.017184,0.36688 1.45,1.45 0 0 0 0.366142,2.01733 1.45,1.45 0 0 0 2.017652,-0.36658 1.45,1.45 0 0 0 -0.366601,-2.01763 z m -10.629685,-6.10447 a 1.95,1.95 0 0 0 -2.713644,0.49304 1.95,1.95 0 0 0 0.4933,2.71323 1.95,1.95 0 0 0 2.712946,-0.4929 1.95,1.95 0 0 0 -0.492624,-2.71337 z m -11.538154,-7.4376 a 2.1500001,2.1500001 0 0 0 -2.991217,0.54348 2.1500001,2.1500001 0 0 0 0.543161,2.99164 2.1500001,2.1500001 0 0 0 2.991931,-0.5436 2.1500001,2.1500001 0 0 0 -0.543875,-2.99152 z m -10.447885,-6.88438 a 2.45,2.45 0 0 0 -3.40899,0.61938 2.45,2.45 0 0 0 0.61935,3.409 2.45,2.45 0 0 0 3.40899,-0.61938 2.45,2.45 0 0 0 -0.61935,-3.409 z m 17.713824,12.34652 a 2,2 0 0 0 -2.783128,0.5053 2,2 0 0 0 0.506044,2.783 2,2 0 0 0 2.782701,-0.5056 2,2 0 0 0 -0.505579,-2.78268 z m -3.929945,-2.35624 a 2.1500001,2.1500001 0 0 0 -2.991948,0.54362 2.1500001,2.1500001 0 0 0 0.543892,2.9915 2.1500001,2.1500001 0 0 0 2.991242,-0.54346 2.1500001,2.1500001 0 0 0 -0.543186,-2.99166 z m 20.5303,14.79036 a 1.85,1.85 0 0 0 -2.574188,0.46769 1.85,1.85 0 0 0 0.467735,2.57417 1.85,1.85 0 0 0 2.574159,-0.4677 1.85,1.85 0 0 0 -0.467716,-2.57416 z m -6.80718,-4.38643 a 1.45,1.45 0 0 0 -2.017639,0.36657 1.45,1.45 0 0 0 0.366619,2.01764 1.45,1.45 0 0 0 2.017628,-0.36657 1.45,1.45 0 0 0 -0.366589,-2.01764 z m -25.171849,-15.82033 a 2.3,2.3 0 0 0 -3.20046,0.58149 2.3,2.3 0 0 0 0.58178,3.20004 2.3,2.3 0 0 0 3.19974,-0.58137 2.3,2.3 0 0 0 -0.58106,-3.20016 z m 20.578517,15.04564 a 1.8,1.8 0 0 0 -2.504433,0.45503 1.8,1.8 0 0 0 0.455001,2.50445 1.8,1.8 0 0 0 2.504437,-0.45504 1.8,1.8 0 0 0 -0.455017,-2.50443 z m 5.480334,5.61169 a 2.25,2.25 0 0 0 -3.131014,0.56926 2.25,2.25 0 0 0 0.568834,3.13069 2.25,2.25 0 0 0 3.130702,-0.56879 2.25,2.25 0 0 0 -0.568522,-3.13116 z m -23.103304,-15.9618 a 2.25,2.25 0 0 0 -3.130717,0.56882 2.25,2.25 0 0 0 0.56883,3.1307 2.25,2.25 0 0 0 3.1307,-0.56882 2.25,2.25 0 0 0 -0.568813,-3.1307 z m 12.623369,9.03201 a 1.95,1.95 0 0 0 -2.713249,0.49334 1.95,1.95 0 0 0 0.492879,2.71295 1.95,1.95 0 0 0 2.713377,-0.49262 1.95,1.95 0 0 0 -0.49308,-2.71368 z m -4.58861,-2.31643 a 2.0999999,2.0999999 0 0 0 -2.921752,0.53122 2.0999999,2.0999999 0 0 0 0.530803,2.92148 2.0999999,2.0999999 0 0 0 2.921895,-0.53051 2.0999999,2.0999999 0 0 0 -0.530946,-2.92219 z m -4.404794,-3.02209 a 2.1500001,2.1500001 0 0 0 -2.991214,0.54347 2.1500001,2.1500001 0 0 0 0.543167,2.99165 2.1500001,2.1500001 0 0 0 2.991932,-0.5436 2.1500001,2.1500001 0 0 0 -0.543885,-2.99152 z m 13.224572,11.61945 a 2.4000001,2.4000001 0 0 0 -3.339945,0.60683 2.4000001,2.4000001 0 0 0 0.607119,3.33953 2.4000001,2.4000001 0 0 0 3.339249,-0.6067 2.4000001,2.4000001 0 0 0 -0.606423,-3.33966 z m -25.523364,-17.53839 a 2.8,2.8 0 0 0 -3.89621,0.70752 2.8,2.8 0 0 0 0.70794,3.89651 2.8,2.8 0 0 0 3.89609,-0.70824 2.8,2.8 0 0 0 -0.70782,-3.89579 z m 3.68282,5.04769 a 2.75,2.75 0 0 0 -3.82645,0.69484 2.75,2.75 0 0 0 0.69529,3.82674 2.75,2.75 0 0 0 3.82632,-0.69556 2.75,2.75 0 0 0 -0.69516,-3.82602 z m 15.582554,10.97561 a 2.4000001,2.4000001 0 0 0 -3.339228,0.6067 2.4000001,2.4000001 0 0 0 0.606417,3.33965 2.4000001,2.4000001 0 0 0 3.339939,-0.60681 2.4000001,2.4000001 0 0 0 -0.607128,-3.33954 z m -5.769365,-2.85062 a 2.7,2.7 0 0 0 -3.757012,0.68261 2.7,2.7 0 0 0 0.682608,3.757 2.7,2.7 0 0 0 3.757008,-0.6826 2.7,2.7 0 0 0 -0.682604,-3.75701 z m -5.071876,-3.40217 a 2.7,2.7 0 0 0 -3.757013,0.68258 2.7,2.7 0 0 0 0.68258,3.75701 2.7,2.7 0 0 0 3.756604,-0.6829 2.7,2.7 0 0 0 -0.682171,-3.75669 z"
         inkscape:transform-center-x="-14.653563"
         inkscape:transform-center-y="15.413703" /></g><circle
       style="fill:url(#radialGradient20125);fill-opacity:1;fill-rule:evenodd;stroke:none;stroke-width:0.956;stroke-linecap:round;stroke-linejoin:round;stroke-dasharray:none;stroke-opacity:1;paint-order:stroke fill markers"
       id="path234-0"
       cx="79.500999"
       cy="79.500999"
       r="79.375" /></g></svg>
