<?xml version="1.0" encoding="UTF-8" standalone="no"?>
<!-- Created with Inkscape (http://www.inkscape.org/) -->

<svg
   width="200"
   height="60"
   viewBox="0 0 52.916665 15.875"
   version="1.1"
   id="svg509"
   sodipodi:docname="logo.svg"
   inkscape:version="1.2.2 (732a01da63, 2022-12-09)"
   xmlns:inkscape="http://www.inkscape.org/namespaces/inkscape"
   xmlns:sodipodi="http://sodipodi.sourceforge.net/DTD/sodipodi-0.dtd"
   xmlns:xlink="http://www.w3.org/1999/xlink"
   xmlns="http://www.w3.org/2000/svg"
   xmlns:svg="http://www.w3.org/2000/svg">
  <sodipodi:namedview
     id="namedview511"
     pagecolor="#ffffff"
     bordercolor="#666666"
     borderopacity="1.0"
     inkscape:showpageshadow="2"
     inkscape:pageopacity="0.0"
     inkscape:pagecheckerboard="0"
     inkscape:deskcolor="#d1d1d1"
     inkscape:document-units="mm"
     showgrid="false"
     inkscape:zoom="1.5488348"
     inkscape:cx="25.18022"
     inkscape:cy="-15.818343"
     inkscape:window-width="1260"
     inkscape:window-height="778"
     inkscape:window-x="-6"
     inkscape:window-y="-6"
     inkscape:window-maximized="1"
     inkscape:current-layer="layer1" />
  <defs
     id="defs506">
    <linearGradient
       inkscape:collect="always"
       xlink:href="#linearGradient3862"
       id="linearGradient3864"
       x1="84.967339"
       y1="332.91751"
       x2="138.30989"
       y2="332.91751"
       gradientUnits="userSpaceOnUse"
       gradientTransform="matrix(0.27309505,0,0,0.27309505,-8.2308428,-82.186907)" />
    <linearGradient
       inkscape:collect="always"
       id="linearGradient3862">
      <stop
         style="stop-color:#ff4500;stop-opacity:1;"
         offset="0"
         id="stop3858" />
      <stop
         style="stop-color:#0000ff;stop-opacity:1;"
         offset="1"
         id="stop3860" />
    </linearGradient>
    <linearGradient
       inkscape:collect="always"
       xlink:href="#linearGradient3862"
       id="linearGradient235487"
       x1="35.930035"
       y1="553.57544"
       x2="62.969078"
       y2="545.73846"
       gradientUnits="userSpaceOnUse"
       gradientTransform="matrix(0.16977747,0,0,0.16977877,-4.8361013,-86.904447)" />
  </defs>
  <g
     inkscape:label="Capa 1"
     inkscape:groupmode="layer"
     id="layer1">
    <g
       id="g792"
       transform="matrix(0.85,0,0,0.85,3.96875,2.315104)">
      <text
         xml:space="preserve"
         style="font-size:13.8731px;line-height:1.25;font-family:STHupo;-inkscape-font-specification:'STHupo, Normal';letter-spacing:0px;word-spacing:0px;fill:url(#linearGradient3864);fill-opacity:1;stroke:none;stroke-width:0.0723703;stroke-dasharray:none"
         x="14.264366"
         y="13.141105"
         id="text361"
         inkscape:export-filename="IdUltra\assets\img\logo.png"
         inkscape:export-xdpi="453"
         inkscape:export-ydpi="453"><tspan
           sodipodi:role="line"
           id="tspan359"
           style="font-style:normal;font-variant:normal;font-weight:300;font-stretch:normal;font-size:13.8731px;font-family:'Arista Pro Alternate';-inkscape-font-specification:'Arista Pro Alternate Light';fill:url(#linearGradient3864);fill-opacity:1;stroke:none;stroke-width:0.0723703;stroke-dasharray:none;stroke-opacity:1"
           x="14.264366"
           y="13.141105">IdUltra</tspan></text>
      <path
         style="fill:url(#linearGradient235487);fill-opacity:1;stroke-width:0.0126183"
         d="m 3.5894221,13.216986 c -0.00447,-0.0079 -0.021802,-0.27279 -0.038369,-0.589907 -0.1059316,-2.02672 -0.1308809,-2.390324 -0.1707496,-2.490298 -0.00737,-0.01842 -0.030736,-0.04078 -0.051895,-0.0496 -0.041341,-0.01711 -0.030973,-0.01869 -0.3063415,0.04395 -0.076328,0.01737 -0.2324924,0.0458 -0.347002,0.06316 -0.5037566,0.07658 -0.847473,0.07789 -0.9968388,0.004 -0.047382,-0.02355 -0.063527,-0.04171 -0.097576,-0.110001 C 1.4524013,9.8308211 1.3561218,9.18698 1.2617518,7.9558912 1.2407388,7.6817601 1.2201338,7.4388001 1.2159498,7.4159582 1.2011478,7.3350374 1.1369378,7.3038531 0.55585891,7.0960115 0.0335734,6.9091171 0,6.8959987 0,6.8787225 0,6.7989855 0.78956591,5.3991995 1.1076982,4.9148849 L 1.252748,4.6940565 1.288261,4.3722942 C 1.4244083,3.1390204 1.5474452,2.5506138 1.7855928,1.9939178 2.0362708,1.4079061 2.4043724,0.95313054 2.8887741,0.63094704 c 0.6320305,-0.4203807 1.4844735,-0.6268933 2.6001385,-0.629946 0.1908507,-5.1310344e-4 0.3809438,0.00395 0.4224341,0.00921 l 0.075433,0.010526 -0.071893,0.02921 c -0.061027,0.024868 -0.1248543,0.079342 -0.4224343,0.3611307 C 4.7802014,1.0854054 4.6572395,1.2142472 4.5745955,1.3727996 4.4706377,1.5722597 4.4693482,1.7342724 4.5663055,2.4156524 4.6643045,3.1044139 4.7199802,3.5715709 4.7519851,3.9736619 l 0.00908,0.1132889 0.1273796,0.1311833 c 0.2751461,0.2834337 0.8155856,0.7239195 1.2269274,0.9999715 0.1502091,0.1007878 0.1302757,0.035791 0.1622102,0.5288146 0.011974,0.1839075 0.025986,0.3457494 0.03125,0.3596308 0.00526,0.013816 0.2616131,0.3028151 0.5696376,0.6420906 0.308022,0.3392756 0.5621497,0.6224066 0.5647286,0.6292093 0.00263,0.00658 -0.071184,0.088421 -0.1639167,0.181289 l -0.1686035,0.1689614 -5.105e-4,0.091447 c -6.789e-4,0.1032876 -0.026289,0.1661971 -0.095089,0.2334602 -0.06454,0.063158 -0.120393,0.084472 -0.2200361,0.084342 C 6.6906476,8.1372584 6.628077,8.1097195 6.5591118,8.0332734 6.5038618,7.9720894 6.4806128,7.90709 6.4815868,7.8161948 6.4834268,7.6375374 6.6180735,7.5095246 6.8029915,7.5104983 l 0.083644,5e-4 0.067249,-0.068158 0.067249,-0.068158 -0.044698,-0.047369 C 6.9518575,7.301261 6.7993379,7.1336034 6.6375198,6.9547618 6.4757005,6.7759466 6.3407555,6.6321837 6.3376371,6.635302 c -0.00618,0.00658 0.094748,2.2030081 0.105183,2.2873896 l 0.00644,0.052895 0.8100612,-0.7330773 C 7.7048579,7.8392993 8.0709609,7.5055764 8.0728872,7.500879 8.0747272,7.496929 7.8004095,7.2242085 7.4631037,6.896525 L 6.8498215,6.3007239 6.7952155,6.3086139 C 6.7196775,6.3204599 6.61726,6.2879599 6.5528211,6.2326969 6.4069542,6.1078293 6.4051106,5.8841716 6.5488711,5.754277 6.5957271,5.711908 6.6984147,5.670725 6.7570864,5.670725 c 0.059645,0 0.1613708,0.041185 0.2098676,0.084999 0.075999,0.068684 0.1043263,0.1320262 0.1050105,0.234973 l 5.092e-4,0.086579 0.7361822,0.714393 0.7361862,0.7144326 -0.064486,0.057105 C 8.1942766,7.8164427 6.4741332,9.3770049 6.470212,9.3868598 c -0.00961,0.024343 0.062723,1.2795242 0.07713,1.3375502 0.00513,0.02079 0.013539,0.03658 0.018579,0.03513 0.005,-0.0013 0.042922,-0.04829 0.084169,-0.103946 L 6.725077,10.554411 6.680366,10.273464 C 6.655775,10.118926 6.627486,9.9799256 6.617473,9.9645573 6.59225,9.9257413 6.594829,9.8483739 6.622863,9.8032288 6.635758,9.7824378 6.670956,9.7377048 6.701033,9.7037558 6.748402,9.6504668 7.5401168,8.8914945 7.80613,8.6444161 l 0.092828,-0.086183 v -0.082632 c 0,-0.1080244 0.019289,-0.1687233 0.073867,-0.2324995 0.151942,-0.177526 0.433976,-0.1363285 0.5307751,0.0775 0.054355,0.1201309 0.019645,0.2758677 -0.081223,0.3644465 -0.06608,0.058027 -0.1177603,0.077105 -0.2081243,0.077105 H 8.1375748 L 7.750735,9.1312432 C 7.5379715,9.3342426 7.2766713,9.583334 7.1700671,9.684781 7.0634627,9.7862297 6.9686968,9.8800048 6.9594811,9.8931624 c -0.014263,0.020397 -0.00868,0.074872 0.03721,0.3644466 0.046343,0.292368 0.051855,0.346762 0.038935,0.384684 -0.00829,0.02421 -0.07292,0.122236 -0.1436787,0.217709 -0.070737,0.0954 -0.1286442,0.176474 -0.1286442,0.180039 0,0.01053 0.1310783,0.18275 0.1384736,0.182211 0.00356,-1.58e-4 0.1358712,-0.126579 0.2938236,-0.280737 L 7.4827912,10.661213 7.3441662,10.415161 7.205544,10.169109 7.4023472,9.9718593 7.5991533,9.7745969 l 0.00171,-0.093026 c 0.00131,-0.076975 0.00763,-0.1031562 0.036605,-0.1524734 0.1046948,-0.1782895 0.3312032,-0.2159871 0.4848833,-0.080662 0.075723,0.06671 0.1041434,0.1307885 0.1041434,0.234855 0,0.1898814 -0.1271955,0.3145793 -0.3214744,0.3151836 l -0.088577,3.426e-4 -0.1099709,0.1105243 -0.1099859,0.110527 0.1397301,0.251593 0.1397316,0.251617 -0.1367396,0.133683 c -0.0752,0.07355 -0.2514896,0.244185 -0.3917396,0.379225 l -0.2550009,0.245565 0.207264,0.277314 c 0.1728205,0.23125 0.2038754,0.279224 0.1868941,0.288724 -0.074289,0.04158 -3.8137148,1.181578 -3.8758049,1.181578 -0.00724,0 -0.016868,-0.0066 -0.021382,-0.01342 z m 4.0950542,-1.356209 c -0.2569016,-0.07973 -0.2913275,-0.44942 -0.053684,-0.57642 0.07942,-0.04237 0.1417444,-0.05224 0.2242569,-0.035 l 0.067986,0.01407 0.278584,-0.204723 0.2785841,-0.20471 -0.029737,-0.03263 C 8.4341243,10.803346 8.3225327,10.681583 8.2025472,10.550649 L 7.9843694,10.312571 8.1277523,10.165781 C 8.2066073,10.08512 8.3671499,9.921518 8.484492,9.8023996 L 8.697848,9.5858082 8.5102851,9.3892956 C 8.4071151,9.28127 8.3155938,9.1799406 8.3068806,9.1642434 8.2824996,9.1204284 8.2872106,9.0617439 8.3188546,9.014744 8.3576716,8.957112 8.3980906,8.937902 8.4667427,8.944612 c 0.055105,0.00526 0.063908,0.013157 0.2999983,0.2560526 0.1337711,0.1378016 0.2709148,0.2819338 0.3047606,0.3202623 l 0.06154,0.069604 L 8.781578,9.9498592 C 8.5882757,10.147491 8.4298379,10.313648 8.4294971,10.319122 c -3.382e-4,0.0053 0.1143655,0.135131 0.2549012,0.288171 0.1405369,0.153039 0.2555199,0.283381 0.2555199,0.289657 0,0.0066 -0.178864,0.142539 -0.3974738,0.302842 -0.2186112,0.160301 -0.407412,0.300341 -0.4195566,0.31121 -0.014316,0.01316 -0.022079,0.03815 -0.022079,0.0721 0,0.06842 -0.052501,0.172881 -0.1115499,0.221723 -0.049869,0.04131 -0.1471827,0.07592 -0.2093517,0.07447 -0.021289,-5e-4 -0.064264,-0.0092 -0.095497,-0.01856 z M 8.1055065,6.7391309 C 7.9818365,6.7004467 7.9003084,6.5952889 7.8894927,6.4605394 L 7.8829127,6.3794864 6.5195222,5.2717915 C 5.7696574,4.662556 5.1511109,4.1606886 5.1449767,4.1565177 5.1387967,4.1525677 5.0290042,3.5706373 4.9009041,2.8638234 4.6783787,1.636063 4.6689854,1.5777603 4.6903994,1.5574447 4.7027674,1.5456027 5.0634487,1.2710374 5.4919943,0.94693264 l 0.7791739,-0.5892618 v -0.056184 c 0,-0.2268021 0.2606157,-0.3748282 0.4643559,-0.2637758 0.1181167,0.064473 0.1752758,0.1740654 0.1628444,0.3124993 -0.016829,0.1872758 -0.1951008,0.3183282 -0.3762002,0.2765257 L 6.4584183,0.61199904 5.7559647,1.1433402 C 5.3696175,1.4355632 5.0442284,1.68401 5.0328815,1.6954047 c -0.019091,0.01921 -0.00539,0.1042088 0.1839204,1.1475106 0.1681616,0.9263136 0.2088754,1.1308658 0.2288319,1.1496421 0.013342,0.013157 0.6132756,0.5006832 1.3331605,1.0846817 L 8.087676,6.1390789 8.141453,6.1272369 C 8.2642013,6.0996059 8.4045467,6.1602629 8.47228,6.2700657 8.524675,6.3550647 8.532227,6.471723 8.49149,6.5664463 8.428543,6.712802 8.2607492,6.7879466 8.1054468,6.7393548 Z M 7.8733651,5.7668434 C 7.7534322,5.7284224 7.6681909,5.6190806 7.6517831,5.4826864 L 7.6434931,5.4133444 6.7271112,4.7179775 C 6.2231033,4.3355179 5.8121942,4.0175582 5.8139835,4.0113606 5.8158235,4.0047806 6.5369044,3.5467827 7.4164982,2.9927577 8.2960879,2.4387062 9.0192023,1.9816022 9.0234111,1.9769707 9.0322311,1.9677607 8.5370541,1.1098278 8.5238068,1.1118541 8.5190768,1.1125252 8.0788216,1.3876431 7.5456561,1.7231159 l -0.969389,0.6099459 -0.00855,0.057106 C 6.5352831,2.6064823 6.3017511,2.7301399 6.1102359,2.6324296 5.9991184,2.5758506 5.9386062,2.4771668 5.9388891,2.3533248 c 3.381e-4,-0.1331969 0.063144,-0.2364599 0.176277,-0.2896307 0.067474,-0.03171 0.1785076,-0.037632 0.2463291,-0.013157 l 0.044856,0.016184 1.1028236,-0.6935774 C 8.115727,0.99168364 8.6180339,0.67603964 8.6254115,0.67168434 8.6388324,0.66379434 9.4447996,2.0413 9.4447996,2.072142 c 0,0.00921 -0.689467,0.4499989 -1.5321493,0.9808529 -0.8426786,0.5308542 -1.5372902,0.9703269 -1.5435768,0.9766294 -0.00684,0.00658 0.2823141,0.2344865 0.7182717,0.5655381 0.4013381,0.3047627 0.736036,0.5579989 0.7437741,0.5627357 0.00776,0.00395 0.044645,0.00131 0.082012,-0.00526 0.1311572,-0.027367 0.2761646,0.045264 0.342936,0.1716839 0.035775,0.067763 0.037841,0.2076576 0.00395,0.2721442 -0.03188,0.060786 -0.093379,0.1238111 -0.1487369,0.1523109 -0.063803,0.032894 -0.1674802,0.04092 -0.2379136,0.018289 z M 7.5744775,4.605662 C 7.104065,4.2690311 6.7216489,3.989387 6.7246622,3.9842028 6.7276922,3.9789428 7.2099307,3.7018746 7.7963409,3.3683093 8.3827563,3.0347575 8.8668883,2.7536792 8.8721987,2.7437188 c 0.00539,-0.010527 0.013027,-0.039079 0.017066,-0.064737 0.011578,-0.072894 0.078933,-0.1604864 0.156864,-0.2039863 0.167786,-0.093683 0.390138,-0.00921 0.450097,0.1716047 0.06109,0.1839472 -0.04413,0.373223 -0.230725,0.414986 -0.06041,0.013421 -0.08197,0.013157 -0.155839,-0.00658 L 9.0239211,3.0329022 8.1680818,3.519888 C 7.6973677,3.7877413 7.3122412,4.0118987 7.3122412,4.0180172 c 0,0.00658 0.2867473,0.2163153 0.6372187,0.467091 0.3504715,0.2508021 0.6481026,0.4705648 0.6614053,0.488341 0.027842,0.037238 0.032263,0.1217098 0.00868,0.1658418 C 8.5971512,5.181133 8.5309822,5.217317 8.4767019,5.217317 8.4349429,5.2173564 8.3359738,5.150211 7.5745038,4.6053185 Z M 7.9910812,4.3643992 c -0.055027,-0.027105 -0.083684,-0.075263 -0.083684,-0.1404863 0,-0.095788 0.013933,-0.1053944 0.463194,-0.3185126 0.3591905,-0.170368 0.41319,-0.1996575 0.4187781,-0.227131 0.0125,-0.061711 0.071789,-0.1634867 0.1138393,-0.1955391 0.158276,-0.1207888 0.384812,-0.077237 0.474862,0.091314 0.04256,0.079605 0.05218,0.1417626 0.03488,0.2251178 -0.03966,0.1910263 -0.259762,0.3010785 -0.4392511,0.2196315 L 8.9190839,3.9940575 8.5067091,4.1894649 C 8.2799035,4.2969645 8.0801948,4.3847411 8.0629107,4.3845832 8.0456347,4.3844384 8.0133187,4.3753732 7.9910957,4.3644522 Z M 5.6779146,3.6618746 C 5.6777712,3.6539846 5.6013366,3.257836 5.5080532,2.7825213 5.4034755,2.2496673 5.3429573,1.9138128 5.3501928,1.9065759 c 0.00644,-0.00658 0.464698,-0.3112096 1.0183189,-0.677209 l 1.0065808,-0.66547236 0.014158,-0.070789 c 0.019553,-0.097631 0.074512,-0.1814996 0.1492131,-0.2276969 0.050276,-0.031184 0.077893,-0.038816 0.1510852,-0.042237 0.078157,-0.00395 0.098366,3.553e-4 0.1588695,0.031448 0.1200772,0.061579 0.1906546,0.1953416 0.1712853,0.3245124 -0.0125,0.083421 -0.078605,0.1831443 -0.1509854,0.2277758 -0.053974,0.033289 -0.073144,0.038158 -0.1514169,0.0375 -0.049291,-3.421e-4 -0.1094973,-0.00263 -0.1337793,-0.00658 -0.040646,-0.00526 -0.1169983,0.042631 -0.9589852,0.59913066 -0.5031503,0.3325518 -0.919833,0.6089985 -0.9259621,0.6143142 -0.01171,0.010527 0.1899735,1.0694845 0.2072824,1.0885107 0.00539,0.00658 0.5702419,-0.3453018 1.2550547,-0.7806825 l 1.2451178,-0.7916033 0.064329,0.00658 c 0.052,0.00526 0.071117,0.013815 0.099773,0.045921 0.045211,0.050527 0.049882,0.1436969 0.00974,0.1946574 C 8.5584471,1.841889 7.784008,2.3394807 5.9714706,3.4906362 5.8101144,3.5931344 5.6779749,3.6701357 5.6778301,3.6617936 Z"
         id="path235479"
         inkscape:export-filename="vortex-master\assets\img\logo.png"
         inkscape:export-xdpi="453"
         inkscape:export-ydpi="453" />
    </g>
  </g>
</svg>
