<?xml version="1.0" encoding="UTF-8" standalone="no"?>
<!-- Created with Inkscape (http://www.inkscape.org/) -->

<svg
   width="45"
   height="38"
   viewBox="0 0 11.90625 10.054167"
   version="1.1"
   id="svg509"
   sodipodi:docname="logosn.svg"
   inkscape:version="1.2.2 (732a01da63, 2022-12-09)"
   xmlns:inkscape="http://www.inkscape.org/namespaces/inkscape"
   xmlns:sodipodi="http://sodipodi.sourceforge.net/DTD/sodipodi-0.dtd"
   xmlns:xlink="http://www.w3.org/1999/xlink"
   xmlns="http://www.w3.org/2000/svg"
   xmlns:svg="http://www.w3.org/2000/svg">
  <sodipodi:namedview
     id="namedview511"
     pagecolor="#ffffff"
     bordercolor="#666666"
     borderopacity="1.0"
     inkscape:showpageshadow="2"
     inkscape:pageopacity="0.0"
     inkscape:pagecheckerboard="0"
     inkscape:deskcolor="#d1d1d1"
     inkscape:document-units="mm"
     showgrid="false"
     inkscape:zoom="1.5488348"
     inkscape:cx="25.18022"
     inkscape:cy="-63.596196"
     inkscape:window-width="1260"
     inkscape:window-height="778"
     inkscape:window-x="-6"
     inkscape:window-y="-6"
     inkscape:window-maximized="1"
     inkscape:current-layer="layer1" />
  <defs
     id="defs506">
    <linearGradient
       inkscape:collect="always"
       id="linearGradient3862">
      <stop
         style="stop-color:#ff4500;stop-opacity:1;"
         offset="0"
         id="stop3858" />
      <stop
         style="stop-color:#0000ff;stop-opacity:1;"
         offset="1"
         id="stop3860" />
    </linearGradient>
    <linearGradient
       inkscape:collect="always"
       xlink:href="#linearGradient3862"
       id="linearGradient235487"
       x1="35.930035"
       y1="553.57544"
       x2="62.969078"
       y2="545.73846"
       gradientUnits="userSpaceOnUse"
       gradientTransform="matrix(0.11884411,0,0,0.11884502,-0.76191047,-60.436179)" />
  </defs>
  <g
     inkscape:label="Capa 1"
     inkscape:groupmode="layer"
     id="layer1">
    <path
       style="fill:url(#linearGradient235487);fill-opacity:1;stroke-width:0.00883284"
       d="m 5.1359502,9.6487556 c -0.00313,-0.0055 -0.015262,-0.190952 -0.026858,-0.412934 -0.074153,-1.418703 -0.091617,-1.6732252 -0.1195251,-1.743207 -0.00516,-0.012897 -0.021516,-0.028544 -0.036327,-0.03472 -0.028939,-0.011974 -0.021681,-0.013086 -0.2144388,0.030767 -0.05343,0.012164 -0.1627445,0.03206 -0.2429011,0.044215 -0.3526293,0.053604 -0.5932306,0.054526 -0.6977865,0.0028 -0.033168,-0.016487 -0.044469,-0.029194 -0.068303,-0.077 C 3.6400371,7.2784428 3.5726415,6.8277544 3.5065826,5.9659931 3.4918735,5.7741015 3.47745,5.6040297 3.4745212,5.5880404 3.4641598,5.5313959 3.4192129,5.5095668 3.0124581,5.3640779 2.6468586,5.2332519 2.6233572,5.2240691 2.6233572,5.2119757 c 0,-0.055816 0.5526956,-1.035665 0.775388,-1.3746849 L 3.5002799,3.682711 3.525139,3.4574777 C 3.6204421,2.5941868 3.7065678,2.1823026 3.873271,1.7926157 4.0487454,1.382408 4.3064162,1.0640654 4.6454971,0.83853724 5.087918,0.54427104 5.6846276,0.39971234 6.4655923,0.39757544 c 0.1335953,-3.592e-4 0.2666603,0.00277 0.2957036,0.00645 l 0.052803,0.00737 -0.050325,0.020447 c -0.042719,0.017408 -0.087398,0.05554 -0.2957038,0.2527913 C 5.9694949,1.1566626 5.8834217,1.2468517 5.825571,1.3578383 5.752801,1.4974602 5.751898,1.610869 5.819761,2.0878345 5.88836,2.5699671 5.9273332,2.8969767 5.9497365,3.1784401 l 0.00636,0.079302 0.089166,0.091828 c 0.1926021,0.1984034 0.5709094,0.5067432 0.8588484,0.6999794 0.1051462,0.070552 0.091193,0.025053 0.113547,0.3701699 0.00838,0.128735 0.01819,0.2420243 0.021875,0.2517412 0.00368,0.00967 0.183129,0.2119704 0.3987459,0.4494631 0.2156151,0.2374926 0.3935047,0.4356842 0.3953099,0.4404461 0.00181,0.0046 -0.049832,0.061895 -0.1147415,0.1269021 l -0.1180213,0.1182728 -3.574e-4,0.064013 c -4.736e-4,0.072297 -0.018401,0.1163334 -0.066561,0.1634175 -0.045178,0.044211 -0.084275,0.05913 -0.1540251,0.059039 -0.073076,-6.45e-5 -0.1168759,-0.019342 -0.1651515,-0.072854 -0.038675,-0.042829 -0.054949,-0.088328 -0.054267,-0.1519549 0.00129,-0.12506 0.095541,-0.2146689 0.224983,-0.2139873 l 0.05855,3.5e-4 0.047075,-0.04771 0.047074,-0.04771 -0.031288,-0.033159 C 7.4896527,5.5077524 7.3828891,5.3903922 7.2696165,5.2652032 7.1563431,5.1400327 7.0618817,5.0393987 7.0596988,5.0415815 c -0.00432,0.0046 0.066324,1.5421042 0.073628,1.6011712 l 0.0045,0.037027 0.5670419,-0.5131536 C 8.016749,5.8843791 8.2730212,5.6507732 8.2743693,5.6474851 8.275687,5.6447181 8.0836352,5.4538159 7.8475213,5.2244378 L 7.4182246,4.8073773 7.3800006,4.8129032 C 7.3271269,4.8211923 7.2554347,4.7984423 7.2103275,4.7597583 7.1082208,4.672351 7.1069302,4.5157908 7.2075625,4.4248646 c 0.032799,-0.029659 0.1046804,-0.058486 0.1457505,-0.058486 0.041751,0 0.1129595,0.028829 0.1469073,0.059499 0.053199,0.048078 0.073028,0.092418 0.073507,0.1644809 l 3.564e-4,0.060605 0.5153274,0.5000745 0.5153296,0.5001024 -0.045138,0.039973 c -0.2002551,0.1772655 -1.4043541,1.2696582 -1.407099,1.2765569 -0.00673,0.017039 0.043907,0.8956656 0.053991,0.9362836 0.00359,0.014552 0.00948,0.025604 0.013005,0.024591 0.0035,-9.059e-4 0.030046,-0.033806 0.058918,-0.072759 L 7.3309097,7.7849541 7.2996123,7.5882913 C 7.2823989,7.4801151 7.2625963,7.3828152 7.2555873,7.3720574 c -0.017656,-0.027168 -0.01585,-0.081332 0.00377,-0.1129305 0.00903,-0.014552 0.033665,-0.04587 0.054718,-0.069629 C 7.3472361,7.1522 7.9014352,6.6209152 8.0876441,6.4479606 l 0.064976,-0.060328 v -0.057842 c 0,-0.075617 0.013506,-0.1181062 0.051709,-0.1627495 0.1063595,-0.124268 0.3037832,-0.09543 0.3715423,0.05425 0.038047,0.084091 0.013753,0.1931071 -0.056856,0.2551123 -0.046258,0.040619 -0.082433,0.053973 -0.1456871,0.053973 H 8.3196511 L 8.0488633,6.7887389 C 7.899929,6.930838 7.7170192,7.105202 7.642396,7.1762149 7.5677727,7.2472278 7.5014372,7.3128712 7.4949862,7.3220816 c -0.00998,0.01428 -0.00608,0.052409 0.026047,0.2551127 0.03244,0.2046567 0.036299,0.2427326 0.027255,0.2692782 -0.00581,0.016948 -0.051044,0.085565 -0.100575,0.1523964 -0.049516,0.06678 -0.090051,0.1235317 -0.090051,0.1260267 0,0.0073 0.091755,0.127925 0.096932,0.127548 0.0025,-1.11e-4 0.09511,-0.08861 0.205676,-0.1965157 L 7.8613039,7.8597165 7.7642658,7.6874804 7.6672303,7.5152443 7.8049926,7.377169 l 0.137764,-0.1380835 0.00124,-0.065116 c 9.059e-4,-0.053883 0.00535,-0.072207 0.02562,-0.1067309 0.073286,-0.1248025 0.2318422,-0.1511908 0.3394181,-0.056461 0.053002,0.046694 0.072899,0.091552 0.072899,0.1643985 0,0.1329167 -0.089037,0.220205 -0.2250317,0.2206283 L 8.094899,7.396044 8.017924,7.473414 7.940932,7.550785 8.038743,7.7268999 8.136555,7.9030313 8.040838,7.9966093 C 7.988198,8.0480963 7.8647947,8.1675386 7.7666202,8.2620666 l -0.1785005,0.171895 0.145085,0.194119 c 0.1209739,0.161876 0.1427126,0.195458 0.1308258,0.202108 -0.052006,0.0291 -2.6695982,0.827103 -2.7130611,0.827103 -0.00506,0 -0.011808,-0.0046 -0.014968,-0.0094 z m 2.8665353,-0.949345 c -0.1798315,-0.05581 -0.2039296,-0.314594 -0.037578,-0.403494 0.055596,-0.02965 0.099221,-0.03656 0.1569802,-0.0245 l 0.047592,0.0098 0.1950084,-0.143257 0.1950091,-0.1432964 -0.020819,-0.022845 C 8.5272396,7.959202 8.4491254,7.8739726 8.3651354,7.7823188 L 8.2124112,7.6156638 8.3127787,7.5129113 C 8.3679798,7.4564501 8.4803569,7.341927 8.5624965,7.2585447 L 8.7118462,7.1069306 8.5805515,6.9693717 C 8.5083363,6.8937553 8.4442682,6.8228239 8.4381692,6.8118356 c -0.017063,-0.030668 -0.013769,-0.071754 0.00838,-0.1046496 0.027168,-0.040342 0.055465,-0.05379 0.1035217,-0.049092 0.038574,0.00368 0.044734,0.00921 0.2099993,0.1792366 0.09364,0.096461 0.18964,0.1973537 0.213331,0.2241834 l 0.04308,0.04872 -0.246024,0.2515295 c -0.135309,0.1383419 -0.2462153,0.2546521 -0.2464533,0.258484 -2.371e-4,0.00371 0.080055,0.094591 0.1784303,0.2017192 0.09838,0.1071271 0.178863,0.1983667 0.178863,0.2027602 0,0.00461 -0.125204,0.099777 -0.2782304,0.2119887 -0.1530281,0.112211 -0.285188,0.210239 -0.2936893,0.217847 -0.010022,0.0092 -0.015458,0.02671 -0.015458,0.05047 0,0.0479 -0.036746,0.121017 -0.078087,0.155205 -0.034909,0.02892 -0.1030275,0.05314 -0.1465461,0.05213 -0.014906,-3.5e-4 -0.044981,-0.0064 -0.066846,-0.013 z M 8.2972066,5.1142617 C 8.2106373,5.0871828 8.1535676,5.0135724 8.1459969,4.9192479 L 8.1413909,4.8625108 7.1870183,4.0871251 C 6.6621135,3.6606607 6.2291313,3.3093538 6.2248374,3.3064342 6.2205114,3.3036692 6.1436567,2.8963183 6.0539867,2.4015491 5.8982191,1.5421176 5.8916438,1.5013058 5.9066336,1.4870849 5.9152912,1.4787955 6.1677678,1.2866 6.4677495,1.0597268 L 7.0131707,0.64724404 v -0.0393284 c 0,-0.1587614 0.1824308,-0.2623795 0.3250488,-0.1846429 0.082682,0.045131 0.1226929,0.1218457 0.1139909,0.2187493 -0.011781,0.1310929 -0.1365704,0.2228296 -0.2633398,0.1935678 L 7.1442456,0.82527364 6.6525286,1.1972121 c -0.2704428,0.2045558 -0.498215,0.3784684 -0.5061578,0.3864447 -0.013363,0.013447 -0.00377,0.072946 0.1287442,0.8032566 0.117713,0.648419 0.1462126,0.7916053 0.1601821,0.8047487 0.00934,0.00921 0.4292926,0.3504779 0.9332115,0.7592764 l 0.9162166,0.7432872 0.037643,-0.00829 c 0.085924,-0.019341 0.1841657,0.023118 0.2315787,0.09998 0.03668,0.059499 0.041967,0.14116 0.013448,0.2074663 -0.044059,0.1024488 -0.1615186,0.15505 -0.2702302,0.1210358 z M 8.1347071,4.4336611 C 8.0507542,4.4067664 7.9910854,4.3302273 7.9796005,4.2347514 L 7.9738358,4.1862118 7.3323304,3.6994557 C 6.9795253,3.4317342 6.6918892,3.2091627 6.6931417,3.2048243 6.6944297,3.2002184 7.1991858,2.8796201 7.8149005,2.491803 8.4306133,2.1039674 8.9367932,1.7839949 8.9397382,1.7807528 8.9459152,1.7743046 8.5992893,1.1737533 8.5900163,1.1751718 8.5867222,1.1756415 8.2785265,1.3682239 7.9053116,1.6030546 l -0.6785719,0.4269617 -0.00599,0.039974 C 7.1980509,2.2214105 7.0345786,2.3079707 6.9005182,2.2395736 6.822736,2.1999683 6.7803775,2.1308898 6.7805755,2.0442004 c 2.367e-4,-0.093238 0.044201,-0.1655217 0.1233938,-0.2027413 0.047232,-0.022197 0.1249552,-0.026342 0.1724302,-0.00921 l 0.0314,0.011328 0.7719758,-0.4855037 C 8.3043606,1.0910522 8.6559752,0.87010164 8.6611392,0.86705294 c 0.0094,-0.00553 0.573572,0.95872996 0.573572,0.98031936 0,0.00645 -0.482627,0.314999 -1.072504,0.6865964 -0.5898743,0.3715975 -1.0761019,0.6792281 -1.0805025,0.6836399 -0.00478,0.0046 0.1976196,0.1641404 0.5027896,0.3958763 0.2809363,0.2133336 0.5152244,0.3905988 0.5206407,0.3939146 0.00544,0.00277 0.031253,9.141e-4 0.057408,-0.00368 0.091809,-0.019157 0.1933151,0.031685 0.2400545,0.1201786 0.025044,0.047435 0.026493,0.1453602 0.0028,0.1905008 -0.022318,0.04255 -0.065364,0.086668 -0.1041163,0.1066175 -0.04466,0.023026 -0.1172358,0.028644 -0.1665389,0.012803 z M 7.9254864,3.6208349 C 7.5961977,3.3851935 7.3285069,3.1894428 7.3306162,3.1858139 7.3327362,3.1821339 7.6703037,2.9881844 8.0807907,2.7546889 8.491281,2.5212029 8.8301732,2.3244482 8.8338902,2.317476 c 0.0038,-0.00737 0.0091,-0.027355 0.01195,-0.045316 0.0081,-0.051026 0.05525,-0.1123404 0.109804,-0.1427903 0.11745,-0.065578 0.273097,-0.00645 0.315068,0.1201232 0.04277,0.1287629 -0.03089,0.2612558 -0.161507,0.2904899 -0.04229,0.00939 -0.05738,0.00921 -0.109088,-0.0046 L 8.9400982,2.5199066 8.3410118,2.8607963 c -0.3294996,0.1874971 -0.5990883,0.3444071 -0.5990883,0.34869 0,0.0046 0.2007228,0.1514206 0.4460528,0.3269635 0.2453299,0.1755613 0.4536712,0.3293949 0.4629828,0.3418383 0.019493,0.026066 0.022581,0.085197 0.00609,0.1160891 -0.015672,0.02929 -0.061995,0.054618 -0.09999,0.054618 -0.029235,2.76e-5 -0.09851,-0.046974 -0.6315386,-0.4283985 z M 8.2171086,3.4519511 c -0.038517,-0.018973 -0.058578,-0.052684 -0.058578,-0.09834 0,-0.067052 0.00975,-0.073776 0.3242356,-0.2229585 0.251433,-0.1192575 0.289233,-0.1397602 0.293144,-0.1589916 0.0087,-0.043197 0.05025,-0.1144406 0.07969,-0.1368772 0.110793,-0.084552 0.269369,-0.054066 0.332403,0.06392 0.0298,0.055723 0.03652,0.099234 0.02442,0.1575823 -0.02776,0.1337183 -0.181833,0.2107547 -0.307475,0.1537419 L 8.8667182,3.192712 8.5780559,3.329497 C 8.4192873,3.404747 8.2794917,3.4661902 8.2673924,3.4660797 8.2552948,3.4659783 8.2326807,3.4596314 8.2171242,3.4519883 Z M 6.5978935,2.9601844 C 6.5977932,2.9546614 6.544289,2.6773576 6.4789907,2.3446377 6.4057864,1.9716402 6.3634237,1.7365423 6.3684885,1.7314765 6.3729885,1.7268765 6.6937768,1.51363 7.081311,1.2574307 l 0.7046062,-0.46583016 0.00991,-0.049552 c 0.013687,-0.068341 0.052162,-0.1270497 0.1044489,-0.1593877 0.035198,-0.021829 0.054526,-0.027172 0.1057592,-0.029565 0.054707,-0.00277 0.068855,2.487e-4 0.1112093,0.022014 0.084053,0.043105 0.1334578,0.136739 0.1198992,0.2271584 -0.00875,0.058395 -0.05502,0.1282009 -0.10569,0.159443 -0.037783,0.023302 -0.051199,0.02671 -0.1059914,0.02625 -0.034506,-2.395e-4 -0.076646,-0.00184 -0.093645,-0.0046 -0.028453,-0.00368 -0.0819,0.029841 -0.6712892,0.41939096 -0.3522049,0.2327861 -0.6438825,0.4262986 -0.6481729,0.4300196 -0.00819,0.00737 0.1329814,0.7486384 0.1450975,0.7619567 0.00377,0.0046 0.399169,-0.241711 0.8785375,-0.5464772 l 0.8715815,-0.5541217 0.04503,0.0046 c 0.0364,0.00368 0.049782,0.00967 0.069844,0.032145 0.031648,0.035369 0.034917,0.1005877 0.00684,0.13626 -0.015014,0.019063 -0.5571204,0.3673766 -1.8258956,1.1731847 -0.1129492,0.071749 -0.2054467,0.1256494 -0.2055481,0.11981 z"
       id="path235479"
       inkscape:export-filename="vortex-master\assets\img\logo.png"
       inkscape:export-xdpi="453"
       inkscape:export-ydpi="453" />
  </g>
</svg>
