<?xml version="1.0" encoding="UTF-8" standalone="no"?>
<!-- Created with Inkscape (http://www.inkscape.org/) -->

<svg
   width="200"
   height="60"
   viewBox="0 0 52.916665 15.875"
   version="1.1"
   id="svg509"
   sodipodi:docname="logo.svg"
   inkscape:version="1.2.2 (732a01da63, 2022-12-09)"
   xmlns:inkscape="http://www.inkscape.org/namespaces/inkscape"
   xmlns:sodipodi="http://sodipodi.sourceforge.net/DTD/sodipodi-0.dtd"
   xmlns:xlink="http://www.w3.org/1999/xlink"
   xmlns="http://www.w3.org/2000/svg"
   xmlns:svg="http://www.w3.org/2000/svg">
  <sodipodi:namedview
     id="namedview511"
     pagecolor="#ffffff"
     bordercolor="#666666"
     borderopacity="1.0"
     inkscape:showpageshadow="2"
     inkscape:pageopacity="0.0"
     inkscape:pagecheckerboard="0"
     inkscape:deskcolor="#d1d1d1"
     inkscape:document-units="mm"
     showgrid="false"
     inkscape:zoom="1.5488348"
     inkscape:cx="37.770329"
     inkscape:cy="-15.818343"
     inkscape:window-width="1260"
     inkscape:window-height="778"
     inkscape:window-x="-6"
     inkscape:window-y="-6"
     inkscape:window-maximized="1"
     inkscape:current-layer="layer1" />
  <defs
     id="defs506">
    <linearGradient
       inkscape:collect="always"
       xlink:href="#linearGradient3862"
       id="linearGradient3864"
       x1="84.967339"
       y1="332.91751"
       x2="138.30989"
       y2="332.91751"
       gradientUnits="userSpaceOnUse"
       gradientTransform="matrix(0.23213079,0,0,0.23213079,-3.0274664,-67.543767)" />
    <linearGradient
       inkscape:collect="always"
       id="linearGradient3862">
      <stop
         style="stop-color:#ff4500;stop-opacity:1;"
         offset="0"
         id="stop3858" />
      <stop
         style="stop-color:#0000ff;stop-opacity:1;"
         offset="1"
         id="stop3860" />
    </linearGradient>
    <linearGradient
       inkscape:collect="always"
       xlink:href="#linearGradient3862"
       id="linearGradient235487"
       x1="35.930035"
       y1="553.57544"
       x2="62.969078"
       y2="545.73846"
       gradientUnits="userSpaceOnUse"
       gradientTransform="matrix(0.14431085,0,0,0.14431195,-0.14193611,-71.553676)" />
  </defs>
  <g
     inkscape:label="Capa 1"
     inkscape:groupmode="layer"
     id="layer1">
    <g
       id="g393">
      <g
         aria-label="IdUltra"
         id="text361"
         style="font-size:11.7921px;line-height:1.25;font-family:STHupo;-inkscape-font-specification:'STHupo, Normal';letter-spacing:0px;word-spacing:0px;fill:url(#linearGradient3864);stroke-width:0.0615148">
        <path
           d="m 16.726827,6.2934738 q 0,-0.166978 0.109399,-0.2706195 0.115157,-0.1093993 0.27062,-0.1093993 0.16122,0 0.270619,0.1093993 0.115157,0.1036415 0.115157,0.2706195 v 6.8115502 q 0,0.16122 -0.115157,0.270619 -0.109399,0.1094 -0.270619,0.1094 -0.155463,0 -0.27062,-0.1094 -0.109399,-0.109399 -0.109399,-0.270619 z"
           style="font-weight:300;font-family:'Arista Pro Alternate';-inkscape-font-specification:'Arista Pro Alternate Light'"
           id="path322" />
        <path
           d="m 18.379333,10.750058 q 0,-0.587301 0.218799,-1.0997511 0.224556,-0.5182075 0.604575,-0.8982263 0.385777,-0.3800189 0.892469,-0.5988176 0.512449,-0.2245566 1.093993,-0.2245566 0.777312,0 1.26673,0.3512296 0.495176,0.3454716 0.777311,0.9500471 V 6.3107474 q 0,-0.166978 0.103642,-0.2821352 0.109399,-0.1151572 0.276377,-0.1151572 0.16122,0 0.270619,0.1151572 0.115158,0.1151572 0.115158,0.2821352 v 4.4738586 q -0.0058,0.570028 -0.230315,1.07672 -0.218799,0.506691 -0.598817,0.880952 -0.380019,0.374261 -0.892469,0.59306 -0.506692,0.218799 -1.088236,0.218799 -0.581544,0 -1.093993,-0.218799 -0.506692,-0.224556 -0.892469,-0.604575 -0.380019,-0.380019 -0.604575,-0.886711 -0.218799,-0.51245 -0.218799,-1.093994 z m 0.765796,0 q 0,0.414566 0.16122,0.788827 0.16122,0.368504 0.437597,0.650639 0.276377,0.276377 0.644881,0.437597 0.374261,0.16122 0.800342,0.16122 0.43184,0 0.806101,-0.16122 0.374261,-0.16122 0.64488,-0.437597 0.276378,-0.282135 0.43184,-0.650639 0.16122,-0.374261 0.16122,-0.788827 0,-0.420323 -0.16122,-0.7945844 Q 22.916528,9.5812126 22.64015,9.3048353 22.369531,9.0284579 21.99527,8.8672378 21.621009,8.7060177 21.189169,8.7060177 q -0.426081,0 -0.800342,0.1612201 -0.368504,0.1612201 -0.644881,0.4375975 -0.276377,0.2763773 -0.437597,0.6506383 -0.16122,0.3742614 -0.16122,0.7945844 z"
           style="font-weight:300;font-family:'Arista Pro Alternate';-inkscape-font-specification:'Arista Pro Alternate Light'"
           id="path324" />
        <path
           d="m 25.029663,6.3165052 q 0,-0.1669779 0.115157,-0.2763773 0.115158,-0.1151572 0.282135,-0.1151572 0.161221,0 0.276378,0.1151572 0.120915,0.1093994 0.120915,0.2763773 v 4.4162798 q 0,0.449113 0.132431,0.829132 0.138188,0.374261 0.385776,0.64488 0.247588,0.264862 0.59306,0.414566 0.345472,0.149705 0.765796,0.149705 0.431839,0 0.788827,-0.155462 0.362745,-0.161221 0.621849,-0.443356 0.264861,-0.282135 0.408808,-0.667912 0.143946,-0.385776 0.143946,-0.846405 V 6.3165052 q 0,-0.1669779 0.115158,-0.2763773 0.115157,-0.1151572 0.282135,-0.1151572 0.16122,0 0.276377,0.1151572 0.120915,0.1093994 0.120915,0.2763773 v 4.3644588 q 0,0.575786 -0.190009,1.099752 -0.184252,0.518207 -0.541239,0.9155 -0.35123,0.391534 -0.869437,0.627606 -0.518208,0.230315 -1.174604,0.230315 -0.633365,0 -1.128541,-0.230315 -0.489418,-0.230314 -0.829132,-0.610333 -0.339714,-0.385777 -0.518207,-0.88671 -0.178494,-0.500934 -0.178494,-1.042173 z"
           style="font-weight:300;font-family:'Arista Pro Alternate';-inkscape-font-specification:'Arista Pro Alternate Light'"
           id="path326" />
        <path
           d="m 33.476445,12.736521 q 0.166978,0 0.270619,0.109399 0.1094,0.109399 0.1094,0.270619 0,0.166978 -0.103642,0.27062 -0.103641,0.103641 -0.270619,0.103641 -0.408809,0 -0.75428,-0.138188 -0.345472,-0.138189 -0.598818,-0.391535 -0.253346,-0.259104 -0.397292,-0.616091 -0.138189,-0.362745 -0.138189,-0.806101 V 6.328021 q 0,-0.166978 0.103642,-0.2763774 0.109399,-0.1151572 0.270619,-0.1151572 0.155462,0 0.27062,0.1151572 0.120915,0.1093994 0.120915,0.2763774 v 5.199349 q 0,0.575786 0.293651,0.892468 0.299408,0.316683 0.823374,0.316683 z"
           style="font-weight:300;font-family:'Arista Pro Alternate';-inkscape-font-specification:'Arista Pro Alternate Light'"
           id="path328" />
        <path
           d="m 34.489829,6.6619769 q 0,-0.1612201 0.115157,-0.2763773 0.115157,-0.1151572 0.270619,-0.1151572 0.16122,0 0.276378,0.1151572 0.120915,0.1093993 0.120915,0.2763773 v 1.3185503 h 2.539216 q 0.161221,0 0.276378,0.1151572 0.115157,0.1151572 0.115157,0.2763773 0,0.1497044 -0.115157,0.2591038 -0.1094,0.1093994 -0.276378,0.1093994 h -2.539216 v 2.0670721 q 0,0.420324 0.155462,0.783069 0.16122,0.362745 0.437597,0.633365 0.276378,0.264862 0.644881,0.420324 0.374261,0.149704 0.8061,0.149704 0.380019,0 0.708217,-0.115157 0.328198,-0.115157 0.621849,-0.374261 0.06334,-0.05182 0.132431,-0.08637 0.06909,-0.04031 0.166978,-0.04031 0.132431,0 0.236072,0.109399 0.103642,0.103642 0.103642,0.253346 0,0.08637 -0.04031,0.172736 -0.03455,0.08637 -0.103642,0.149705 -0.362745,0.345471 -0.829132,0.523965 -0.460628,0.172736 -0.99611,0.172736 -0.587301,0 -1.105509,-0.207283 -0.51245,-0.213041 -0.898226,-0.581544 -0.380019,-0.374261 -0.604576,-0.875195 -0.218798,-0.506692 -0.218798,-1.093994 z"
           style="font-weight:300;font-family:'Arista Pro Alternate';-inkscape-font-specification:'Arista Pro Alternate Light'"
           id="path330" />
        <path
           d="m 39.925249,10.865216 q 0,-0.604576 0.230315,-1.134299 0.230314,-0.5354811 0.627607,-0.9327735 0.397292,-0.4030503 0.927015,-0.6333648 0.529724,-0.2360723 1.128541,-0.2360723 h 0.04606 q 0.184252,0 0.287893,0.1093994 0.1094,0.1093993 0.1094,0.2763773 0,0.166978 -0.115158,0.2763774 Q 43.051768,8.694502 42.88479,8.694502 h -0.04606 q -0.437597,0 -0.829132,0.1727358 -0.385776,0.166978 -0.679427,0.4606289 -0.293651,0.2936509 -0.466387,0.6909433 -0.172736,0.397292 -0.172736,0.846406 v 2.23405 q 0,0.166978 -0.109399,0.276377 -0.103642,0.1094 -0.259104,0.1094 -0.16122,0 -0.282135,-0.1094 -0.115158,-0.109399 -0.115158,-0.276377 z"
           style="font-weight:300;font-family:'Arista Pro Alternate';-inkscape-font-specification:'Arista Pro Alternate Light'"
           id="path332" />
        <path
           d="m 46.166772,13.554137 q -0.581544,0 -1.088236,-0.218799 -0.506691,-0.224556 -0.880952,-0.604575 -0.374261,-0.380019 -0.59306,-0.886711 -0.218799,-0.51245 -0.218799,-1.093994 0,-0.587301 0.218799,-1.0997511 0.218799,-0.5124496 0.59306,-0.8924685 0.374261,-0.3857767 0.880952,-0.6045754 0.506692,-0.2245566 1.088236,-0.2245566 0.587302,0 1.093994,0.2245566 0.506692,0.2187987 0.880953,0.5988176 0.374261,0.3800188 0.587302,0.8982263 0.218798,0.5124501 0.218798,1.0997511 v 2.366481 q 0,0.166978 -0.115157,0.282136 -0.115157,0.115157 -0.282135,0.115157 -0.172736,0 -0.276378,-0.115157 -0.09788,-0.115158 -0.09788,-0.282136 l -0.0058,-0.414566 q -0.380019,0.397293 -0.892469,0.627607 -0.506691,0.224557 -1.111267,0.224557 z m 0,-0.765796 q 0.43184,0 0.800343,-0.16122 0.368503,-0.16122 0.633365,-0.437597 0.270619,-0.282135 0.420324,-0.650639 0.155462,-0.374261 0.155462,-0.788827 0,-0.420323 -0.155462,-0.7945844 Q 47.871099,9.5812126 47.60048,9.3048353 47.335618,9.0284579 46.967115,8.8672378 46.598612,8.7060177 46.166772,8.7060177 q -0.426082,0 -0.794585,0.1612201 -0.362745,0.1612201 -0.633364,0.4375975 -0.27062,0.2763773 -0.426082,0.6506383 -0.155462,0.3742614 -0.155462,0.7945844 0,0.414566 0.155462,0.788827 0.155462,0.368504 0.426082,0.650639 0.270619,0.276377 0.633364,0.437597 0.368503,0.16122 0.794585,0.16122 z"
           style="font-weight:300;font-family:'Arista Pro Alternate';-inkscape-font-specification:'Arista Pro Alternate Light'"
           id="path334" />
      </g>
      <path
         style="fill:url(#linearGradient235487);fill-opacity:1;stroke-width:0.0107256"
         d="m 7.0197588,13.549542 c -0.0038,-0.0067 -0.018532,-0.231871 -0.032614,-0.501421 -0.090042,-1.722712 -0.1112487,-2.031775 -0.1451371,-2.116753 -0.00626,-0.01566 -0.026126,-0.03466 -0.044111,-0.04216 -0.03514,-0.01454 -0.026327,-0.01589 -0.2603903,0.03736 -0.064879,0.01477 -0.1976185,0.03893 -0.2949516,0.05369 -0.4281932,0.06509 -0.7203521,0.06621 -0.847313,0.0034 -0.040275,-0.02002 -0.053998,-0.03545 -0.08294,-0.0935 C 5.2032911,10.671302 5.1214535,10.124037 5.041239,9.0776115 5.023378,8.8446001 5.0058637,8.6380841 5.0023073,8.6186685 4.9897256,8.5498858 4.9351471,8.5233791 4.4412301,8.3467138 3.9972874,8.1878535 3.96875,8.1767029 3.96875,8.1620181 c 0,-0.067776 0.671131,-1.2575945 0.9415435,-1.6692619 L 5.0335858,6.305052 5.0637718,6.0315541 C 5.1794971,4.9832713 5.2840784,4.4831257 5.4865039,4.0099341 5.6995802,3.5118242 6.0124665,3.125265 6.424208,2.851409 6.9614339,2.4940854 7.6860105,2.3185497 8.6343257,2.3159549 c 0.1622231,-4.362e-4 0.3238022,0.00336 0.359069,0.00783 l 0.064118,0.00895 -0.061109,0.024829 C 8.9445307,2.3787019 8.8902775,2.4250049 8.6373345,2.664525 8.0319212,3.2377035 7.9274036,3.347219 7.8571562,3.4819886 c -0.088364,0.169541 -0.08946,0.3072518 -0.00705,0.8864248 0.083299,0.5854473 0.1306235,0.9825308 0.1578276,1.3243081 l 0.00772,0.096296 0.1082727,0.1115058 c 0.2338742,0.2409186 0.6932478,0.6153316 1.0428883,0.8499758 0.1276777,0.08567 0.1107343,0.030422 0.1378787,0.4494924 0.010178,0.1563213 0.022088,0.293887 0.026562,0.3056861 0.00447,0.011744 0.2223711,0.2573929 0.4841919,0.5457771 0.2618186,0.2883842 0.4778276,0.5290456 0.4800196,0.5348279 0.0022,0.00559 -0.06051,0.075158 -0.139329,0.1540956 l -0.143313,0.1436172 -4.34e-4,0.07773 C 10.011816,9.0495145 9.990047,9.1029876 9.931567,9.1601612 9.876708,9.2138455 9.8292329,9.2319624 9.7445363,9.2318519 9.6558005,9.2317736 9.6026155,9.2083656 9.543995,9.1433864 9.4970325,9.09138 9.4772709,9.0361305 9.4780988,8.9588696 9.4796628,8.8070108 9.5941125,8.6981999 9.7512928,8.6990276 l 0.071097,4.25e-4 0.057162,-0.057934 0.057162,-0.057934 -0.037993,-0.040264 C 9.8778289,8.5211758 9.7481872,8.3786669 9.6106418,8.2266515 9.4730954,8.0746586 9.3583922,7.9524601 9.3557415,7.9551107 c -0.00525,0.00559 0.080536,1.8725569 0.089406,1.9442812 l 0.00547,0.044961 0.6885515,-0.6231157 c 0.378706,-0.3427285 0.689894,-0.626393 0.691531,-0.6303857 0.0016,-0.00336 -0.231606,-0.23517 -0.518316,-0.5137009 l -0.5212893,-0.506431 -0.046415,0.00671 C 9.6804759,7.6874949 9.593421,7.6598699 9.5386479,7.6128964 9.4146611,7.5067589 9.413094,7.3166499 9.5352904,7.2062394 c 0.039828,-0.036014 0.1271121,-0.071019 0.176983,-0.071019 0.050698,0 0.1371652,0.035007 0.1783875,0.072249 0.064599,0.058381 0.088677,0.1122223 0.089259,0.199727 l 4.328e-4,0.073592 0.6257553,0.607234 0.625758,0.6072678 -0.05481,0.048539 c -0.243168,0.2152507 -1.7052897,1.5417288 -1.7086227,1.5501058 -0.00817,0.02069 0.053315,1.087595 0.065561,1.136917 0.00436,0.01767 0.011508,0.03109 0.015792,0.02986 0.00425,-0.0011 0.036484,-0.04105 0.071544,-0.08835 l 0.063739,-0.08601 -0.038004,-0.238805 c -0.020902,-0.131357 -0.044948,-0.249507 -0.053459,-0.26257 -0.02144,-0.03299 -0.019247,-0.09876 0.00458,-0.13713 0.010961,-0.01767 0.040879,-0.0557 0.066444,-0.08455 0.040264,-0.04529 0.7132207,-0.6904221 0.9393317,-0.9004387 l 0.0789,-0.073256 v -0.070237 c 0,-0.091821 0.0164,-0.1434148 0.06279,-0.1976245 0.129151,-0.1508971 0.36888,-0.1158793 0.451159,0.065875 0.0462,0.1021112 0.0167,0.2344875 -0.06904,0.3097795 -0.05617,0.049323 -0.100097,0.065539 -0.176906,0.065539 h -0.06518 l -0.328814,0.3137267 c -0.180849,0.172549 -0.402954,0.384277 -0.493568,0.470507 -0.090614,0.08623 -0.1711644,0.16594 -0.1789978,0.177124 -0.012124,0.01734 -0.00738,0.06364 0.031629,0.30978 0.039392,0.248512 0.044077,0.294747 0.033095,0.326981 -0.00705,0.02058 -0.061982,0.103901 -0.1221269,0.185053 -0.060126,0.08109 -0.1093476,0.150003 -0.1093476,0.153033 0,0.0089 0.1114166,0.155337 0.1177026,0.154879 0.00303,-1.34e-4 0.1154905,-0.107592 0.2497497,-0.238626 l 0.244113,-0.238257 -0.117832,-0.209144 -0.117829,-0.209144 0.167283,-0.167663 0.167285,-0.167673 0.0015,-0.07907 c 0.0011,-0.06543 0.0065,-0.08768 0.03111,-0.129602 0.08899,-0.151546 0.281523,-0.183589 0.412151,-0.06856 0.06436,0.0567 0.08852,0.11117 0.08852,0.199627 0,0.161399 -0.108116,0.267392 -0.273253,0.267906 l -0.07529,2.91e-4 -0.09347,0.09395 -0.09349,0.09395 0.11877,0.213854 0.118772,0.213874 -0.116228,0.113631 c -0.06392,0.06252 -0.213767,0.207557 -0.332979,0.322341 l -0.2167509,0.20873 0.1761749,0.235717 c 0.146897,0.196563 0.173294,0.237341 0.15886,0.245416 -0.06315,0.03534 -3.2416581,1.004341 -3.2944346,1.004341 -0.00615,0 -0.014338,-0.0056 -0.018175,-0.01141 z m 3.4807962,-1.152778 c -0.218367,-0.06777 -0.247629,-0.382007 -0.04563,-0.489957 0.06751,-0.03601 0.120483,-0.0444 0.190619,-0.02975 l 0.05779,0.01196 0.236796,-0.174015 0.236797,-0.174003 -0.02528,-0.02774 c -0.01389,-0.01532 -0.108743,-0.118813 -0.210731,-0.230107 l -0.185451,-0.202367 0.121875,-0.124771 c 0.06703,-0.06856 0.203488,-0.207624 0.303229,-0.308874 l 0.181353,-0.184103 -0.159429,-0.167036 c -0.08769,-0.09182 -0.165487,-0.177951 -0.172893,-0.191294 -0.02072,-0.03724 -0.01672,-0.08713 0.01018,-0.1270746 0.03299,-0.048987 0.06735,-0.065316 0.125705,-0.059612 0.04684,0.00447 0.05432,0.011183 0.254999,0.2176446 0.113705,0.117131 0.230277,0.239644 0.259046,0.272223 l 0.05231,0.05916 -0.298744,0.305429 c -0.164307,0.167987 -0.298979,0.309221 -0.299268,0.313874 -2.88e-4,0.0045 0.09721,0.114861 0.216666,0.244945 0.119456,0.130083 0.217191,0.240874 0.217191,0.246209 0,0.0056 -0.152034,0.121158 -0.337852,0.257415 -0.18582,0.136256 -0.3463,0.25529 -0.356623,0.264529 -0.01217,0.01119 -0.01877,0.03243 -0.01877,0.06128 0,0.05816 -0.04462,0.146949 -0.09482,0.188464 -0.04239,0.03511 -0.125105,0.06453 -0.177949,0.0633 -0.0181,-4.25e-4 -0.05462,-0.0078 -0.08117,-0.01578 z M 10.858431,8.0433653 C 10.753311,8.0104837 10.684012,7.9210996 10.674819,7.8065625 L 10.669226,7.7376674 9.5103439,6.7961268 C 8.8729588,6.2782766 8.3471943,5.8516893 8.3419802,5.848144 8.3367272,5.8447865 8.2434036,5.3501457 8.1345185,4.7493539 7.9453719,3.7057575 7.9373876,3.6562003 7.9555895,3.638932 7.9661023,3.6288663 8.2726814,3.3954858 8.6369452,3.1199967 L 9.299243,2.6191242 v -0.047756 c 0,-0.1927818 0.2215233,-0.318604 0.3947025,-0.2242094 0.1003992,0.054802 0.1489844,0.1479556 0.1384177,0.2656244 C 9.8180582,2.7719676 9.6665275,2.8833622 9.5125931,2.84783 L 9.4584056,2.8353032 8.86132,3.2869432 C 8.5329249,3.5353327 8.2563441,3.7465125 8.2466993,3.756198 8.2304723,3.772527 8.2421193,3.844775 8.4030316,4.731582 8.545969,5.5189486 8.5805757,5.6928179 8.5975387,5.7087778 8.6088797,5.7199608 9.118823,6.1343585 9.7307252,6.6307572 l 1.1125498,0.9025639 0.04571,-0.010066 c 0.104336,-0.023486 0.22363,0.028072 0.281203,0.1214044 0.04454,0.072249 0.05096,0.1714087 0.01633,0.2519236 -0.0535,0.1244023 -0.19613,0.1882752 -0.328137,0.1469722 z M 10.66111,7.2169209 C 10.559167,7.184263 10.486712,7.0913225 10.472766,6.9753874 l -0.007,-0.058941 L 9.6867945,6.3253849 C 9.2583878,6.0002942 8.9091151,5.7300285 8.910636,5.7247605 8.9122,5.7191675 9.5251187,5.3298693 10.272773,4.858948 c 0.747652,-0.4709437 1.362299,-0.8594821 1.365876,-0.8634189 0.0075,-0.00783 -0.413403,-0.7370715 -0.424663,-0.7353491 -0.004,5.704e-4 -0.378238,0.2344206 -0.831428,0.5195725 l -0.823981,0.518454 -0.00727,0.04854 C 9.5237406,4.530614 9.3252384,4.6357229 9.1624505,4.5526692 9.0680006,4.504577 9.0165653,4.4206958 9.0168057,4.3154301 9.0170931,4.2022127 9.0704781,4.1144392 9.1666412,4.069244 9.2239941,4.0422905 9.3183726,4.0372568 9.3760209,4.0580605 l 0.038128,0.013756 0.9374001,-0.5895408 c 0.515569,-0.324241 0.94253,-0.5925384 0.948801,-0.5962404 0.01141,-0.00671 0.69648,1.1641733 0.69648,1.190389 0,0.00783 -0.586047,0.3824991 -1.302327,0.833725 -0.7162767,0.451226 -1.3066965,0.8247778 -1.3120401,0.830135 -0.00581,0.00559 0.239967,0.1993135 0.6105309,0.4807073 0.3411372,0.2590483 0.6256302,0.4742991 0.6322072,0.4783254 0.0066,0.00336 0.03795,0.00111 0.06971,-0.00447 0.111483,-0.023262 0.23474,0.038474 0.291495,0.1459313 0.03041,0.057599 0.03217,0.176509 0.0034,0.2313226 -0.0271,0.051668 -0.07937,0.1052394 -0.126427,0.1294642 -0.05423,0.02796 -0.142358,0.034782 -0.202226,0.015546 z M 10.407056,6.2299167 C 10.007205,5.9437804 9.6821516,5.7060829 9.6847129,5.7016764 c 0.00258,-0.00447 0.4124781,-0.239979 0.9109271,-0.5235095 0.498453,-0.283519 0.909965,-0.5224356 0.914479,-0.5309019 0.0046,-0.00895 0.01107,-0.033217 0.01451,-0.055027 0.0098,-0.06196 0.06709,-0.1364134 0.133334,-0.1733883 0.142618,-0.079631 0.331618,-0.00783 0.382583,0.145864 0.05193,0.1563551 -0.03751,0.3172395 -0.196116,0.3527381 -0.05135,0.011408 -0.06968,0.011183 -0.132464,-0.00559 l -0.07288,-0.018788 -0.727463,0.4139379 c -0.400107,0.2276753 -0.727465,0.4182091 -0.727465,0.4234098 0,0.00559 0.243735,0.183868 0.541636,0.3970274 0.297901,0.2131818 0.550887,0.39998 0.562194,0.4150898 0.02367,0.031652 0.02742,0.1034533 0.0074,0.1409655 -0.01903,0.035566 -0.07528,0.066322 -0.121416,0.066322 -0.0355,3.35e-5 -0.119619,-0.05704 -0.766869,-0.5201987 z m 0.354113,-0.2050734 c -0.04677,-0.023039 -0.07113,-0.063973 -0.07113,-0.1194133 0,-0.08142 0.01184,-0.089585 0.393715,-0.2707357 0.305311,-0.1448128 0.351211,-0.1697089 0.355961,-0.1930614 0.01062,-0.052454 0.06102,-0.1389637 0.09676,-0.1662082 0.134535,-0.1026705 0.327091,-0.065652 0.403633,0.077617 0.03618,0.067664 0.04435,0.1204982 0.02965,0.1913501 -0.03371,0.1623724 -0.220798,0.2559167 -0.373363,0.1866868 l -0.04642,-0.021026 -0.350518,0.1660963 c -0.192785,0.091375 -0.362537,0.1659847 -0.377229,0.1658505 -0.01469,-1.231e-4 -0.04215,-0.00783 -0.06104,-0.017111 z M 8.7949774,5.4276974 C 8.7948555,5.4209909 8.7298861,5.0842646 8.6505952,4.6802471 8.5617042,4.2273212 8.5102637,3.9418449 8.5164139,3.9356935 c 0.00547,-0.00559 0.3949933,-0.2645281 0.865571,-0.5756276 l 0.8555941,-0.5656515 0.01203,-0.060171 c 0.01662,-0.082986 0.06334,-0.1542747 0.126831,-0.1935424 0.04274,-0.026506 0.06621,-0.032994 0.128422,-0.035901 0.06643,-0.00336 0.08361,3.02e-4 0.13504,0.026731 0.102065,0.052342 0.162056,0.1660404 0.145592,0.2758355 -0.01063,0.070908 -0.06681,0.1556727 -0.128338,0.1936095 -0.04588,0.028296 -0.06217,0.032434 -0.128704,0.031875 -0.0419,-2.908e-4 -0.09307,-0.00224 -0.113712,-0.00559 -0.03455,-0.00447 -0.09945,0.036236 -0.8151377,0.509261 -0.4276778,0.2826691 -0.7818581,0.5176487 -0.7870678,0.5221671 -0.00995,0.00895 0.1614775,0.9090618 0.17619,0.9252341 0.00458,0.00559 0.4847056,-0.2935065 1.0667965,-0.6635801 l 1.05835,-0.6728628 0.05468,0.00559 c 0.0442,0.00447 0.06045,0.011743 0.08481,0.039033 0.03843,0.042948 0.0424,0.1221424 0.0083,0.1654588 C 11.24343,3.8807097 10.585157,4.3036626 9.0445,5.2821448 8.9073472,5.3692682 8.7950287,5.4347193 8.7949056,5.4276286 Z"
         id="path235479"
         inkscape:export-filename="vortex-master\assets\img\logo.png"
         inkscape:export-xdpi="453"
         inkscape:export-ydpi="453" />
    </g>
  </g>
</svg>
